<?xml version="1.0" encoding="UTF-8" standalone="no"?>
<!-- Created with Inkscape (http://www.inkscape.org/) -->

<svg
   version="1.1"
   id="svg75"
   width="606.89172"
   height="760.2973"
   viewBox="0 0 606.89172 760.2973"
   sodipodi:docname="1.svg"
   inkscape:version="1.2.2 (732a01da63, 2022-12-09, custom)"
   xmlns:inkscape="http://www.inkscape.org/namespaces/inkscape"
   xmlns:sodipodi="http://sodipodi.sourceforge.net/DTD/sodipodi-0.dtd"
   xmlns="http://www.w3.org/2000/svg"
   xmlns:svg="http://www.w3.org/2000/svg">
  <defs
     id="defs79" />
  <sodipodi:namedview
     id="namedview77"
     pagecolor="#ffffff"
     bordercolor="#000000"
     borderopacity="0.25"
     inkscape:showpageshadow="2"
     inkscape:pageopacity="0.0"
     inkscape:pagecheckerboard="0"
     inkscape:deskcolor="#d1d1d1"
     showgrid="false"
     inkscape:zoom="1.0667904"
     inkscape:cx="304.65216"
     inkscape:cy="379.64347"
     inkscape:window-width="1920"
     inkscape:window-height="1031"
     inkscape:window-x="0"
     inkscape:window-y="25"
     inkscape:window-maximized="1"
     inkscape:current-layer="g81" />
  <g
     inkscape:groupmode="layer"
     inkscape:label="Image"
     id="g81"
     transform="translate(-5.9910875,-8.2841789)">
    <path
       style="fill:#000000;stroke-width:0.24"
       d="m 600.02801,768.30791 c -0.18242,-0.18242 -1.66265,-0.26513 -4.52801,-0.25296 -2.49247,0.0106 -4.44801,-0.0842 -4.71784,-0.2286 -0.25349,-0.13567 -2.53049,-0.28795 -5.06,-0.33845 -2.52953,-0.0505 -7.87065,-0.21823 -11.86917,-0.37281 -3.9985,-0.15456 -7.92958,-0.22121 -8.73572,-0.14811 -0.80613,0.0731 -1.69874,0.0443 -1.98357,-0.064 -0.8652,-0.32895 -21.19476,-0.56448 -22.52047,-0.26091 -0.71854,0.16452 -1.3045,0.18046 -1.56231,0.0425 -0.68652,-0.36741 -12.32515,-0.74757 -27.0479,-0.88351 -16.29288,-0.15043 -17.12088,-0.15074 -63.06576,-0.0238 -20.2907,0.056 -35.28141,0.007 -35.35701,-0.1151 -0.16397,-0.26528 -25.45073,-0.0175 -28.80927,0.28228 -1.36752,0.12209 -2.74593,0.12708 -3.14913,0.0115 -1.34283,-0.3851 -6.16376,-0.53073 -20.33883,-0.61432 -7.788,-0.0459 -18.49973,-0.15939 -23.80385,-0.25208 -8.58549,-0.15004 -9.87149,-0.12336 -11.71826,0.2431 -2.77169,0.54998 -13.24061,0.65647 -15.23789,0.15499 -0.726,-0.18228 -1.43278,-0.42005 -1.57061,-0.52838 -0.29534,-0.23213 -9.96989,-0.14417 -10.35547,0.0942 -0.14491,0.0895 -0.84182,0.0498 -1.5487,-0.0883 -0.8382,-0.16375 -8.50168,-0.2454 -22.03322,-0.23472 -18.32272,0.0144 -20.81442,0.0598 -21.31607,0.38856 -0.47311,0.31001 -0.63175,0.31939 -0.94905,0.0562 -0.30687,-0.25457 -3.79431,-0.32069 -17.92395,-0.33984 -17.03818,-0.023 -29.33424,-0.15795 -41.42294,-0.45425 -3.234,-0.0793 -12.954,-0.20431 -21.6,-0.27787 -8.646,-0.0736 -17.502,-0.15984 -19.68001,-0.19174 -24.09721,-0.35285 -119.251678,-0.63153 -133.439998,-0.39081 -4.74124,0.0804 -10.7378096,-0.3476 -11.7176696,-0.8364 -0.93647,-0.46719 -1.18545,-0.95681 -0.8002,-1.57368 0.18375,-0.29444 0.27787,-1.90956 0.27787,-4.7684 v -4.32326 h 0.82584 c 0.45421,0 0.88488,-0.0955 0.95705,-0.2123 0.0722,-0.11676 0.64554,-0.28556 1.27416,-0.37505 0.8506296,-0.12111 1.3577996,-0.37392 1.9829496,-0.98844 1.20398,-1.18346 3.78854,-2.81532 4.20554,-2.65529 0.57781,0.22171 0.42603,1.29312 -0.24554,1.73316 -0.36239,0.23743 -0.6,0.6198 -0.6,0.96552 0,0.74506 0.10478,0.72554 1.2173,-0.22673 1.31473,-1.12536 4.80875,-3.06352 5.3827,-2.98584 0.29133,0.0394 0.51053,0.28016 0.55767,0.61241 0.0576,0.40572 -0.2376,0.83093 -1.14,1.64225 -0.86088,0.77402 -1.21767,1.27466 -1.21767,1.7087 v 0.61392 l 2.50953,-0.1421 c 1.38025,-0.0782 2.7352,-0.2629 3.01101,-0.4105 0.27581,-0.1476 0.79353,-0.87285 1.15047,-1.61165 0.6042,-1.25056 0.7401,-1.37335 1.96899,-1.7789 0.726,-0.23961 1.55621,-0.43869 1.84492,-0.44239 0.47234,-0.006 0.5108,0.0833 0.38404,0.89323 -0.0775,0.495 -0.28668,1.11303 -0.46491,1.3734 -0.33265,0.48598 -0.45156,1.8066 -0.16266,1.8066 0.0888,0 0.76375,-0.51974 1.5,-1.155 1.90221,-1.64126 3.37093,-2.59469 4.31439,-2.80073 l 0.81577,-0.17812 -0.14727,0.90751 c -0.081,0.49913 -0.24293,0.97025 -0.35984,1.04693 -0.44261,0.29028 -0.79968,1.2863 -0.66027,1.84175 0.23799,0.94822 1.08246,0.71876 2.94602,-0.80052 1.08196,-0.88207 2.6192,-1.74182 3.1144,-1.74182 0.34479,0 1.0933,1.26269 1.28041,2.16 0.10188,0.48854 0.25794,0.59362 0.84006,0.56563 0.75067,-0.0361 3.63691,-0.41736 5.87495,-0.77611 0.726,-0.11638 2.53497,-0.15458 4.01995,-0.0849 l 2.69995,0.1267 -0.14017,-1.89566 c -0.0771,-1.04261 -0.18168,-2.03067 -0.23242,-2.19567 -0.069,-0.22447 -1.10979,-0.3 -4.13391,-0.3 -2.98311,0 -4.15593,-0.0836 -4.47797,-0.31903 -0.38516,-0.28164 -0.43976,-0.73512 -0.46587,-3.86882 -0.0354,-4.24464 -0.30276,-3.97215 3.89806,-3.97215 1.87051,0 2.9131,-0.0967 3.10438,-0.288 0.42036,-0.42036 0.35704,-3.44136 -0.10737,-5.12157 -0.21745,-0.78675 -0.48033,-2.02443 -0.58419,-2.75043 -0.10385,-0.726 -0.36533,-2.076 -0.58106,-3 -0.21574,-0.924 -0.49713,-2.382 -0.62532,-3.24 -0.23551,-1.57634 -0.28484,-1.94364 -1.08784,-8.1 -0.27249,-2.08908 -0.55026,-3.42 -0.71377,-3.42 -0.14722,0 -0.76605,0.85774 -1.37519,1.90611 -1.3383,2.30328 -2.18733,3.29822 -3.97411,4.65708 -3.55574,2.70415 -7.85126,3.84408 -10.73106,2.84772 -2.09664,-0.72538 -2.14921,-0.99377 -0.51054,-2.60655 0.75814,-0.74618 1.37844,-1.49412 1.37844,-1.66209 0,-0.168 0.2706,-0.62703 0.60134,-1.02008 0.37416,-0.44467 0.65837,-1.1543 0.75232,-1.87843 0.083,-0.64005 0.29998,-1.33596 0.48208,-1.54641 0.33498,-0.38717 1.04319,-2.77764 1.04554,-3.52906 7.2e-4,-0.22457 0.4665,-1.38029 1.03512,-2.56829 0.56862,-1.188 1.17952,-2.538 1.35757,-3 0.37313,-0.96823 1.15696,-1.92 1.5812,-1.92 0.16033,0 0.28224,-0.135 0.27091,-0.3 -0.0463,-0.67466 1.06897,-2.51133 1.98174,-3.26357 1.17975,-0.97226 4.62819,-2.67643 5.41587,-2.67643 0.3124,0 0.62573,-0.0934 0.6963,-0.20762 0.0706,-0.11417 0.53809,-0.26256 1.03894,-0.32974 0.85925,-0.11524 2.01062,-0.73099 3.45903,-1.84984 0.35088,-0.27104 0.76018,-0.4928 0.90957,-0.4928 0.14938,0 0.69573,-0.21638 1.21411,-0.48084 0.51838,-0.26445 1.51308,-0.59664 2.21044,-0.73819 0.69736,-0.14153 1.59524,-0.40497 1.99529,-0.58543 1.29264,-0.58308 3.72052,-0.84427 9.23264,-0.99326 4.60217,-0.1244 5.75459,-0.082 7.8,0.28728 1.67569,0.30247 3.77618,0.44606 6.96,0.47582 4.26915,0.0399 4.72838,1e-4 7.2,-0.624 4.96771,-1.25441 7.79999,-2.35212 7.79999,-3.02306 0,-0.4574 -0.81577,-0.79832 -1.91016,-0.79832 -0.84765,0 -1.01563,-0.0892 -1.23006,-0.6532 -0.34029,-0.89504 0.0293,-1.6147 1.08711,-2.11666 0.72111,-0.34219 0.85311,-0.5263 0.85311,-1.18987 0,-0.84663 0.5309,-1.34911 1.739998,-1.64688 0.57789,-0.1423 0.66,-0.27775 0.66,-1.08857 0,-1.41727 0.49854,-1.66186 1.60894,-0.78934 0.50108,0.39372 1.15406,0.78809 1.45106,0.87636 0.45314,0.13469 0.54,0.0691 0.54,-0.40766 0,-0.3125 -0.11714,-0.68532 -0.26031,-0.8285 -0.14318,-0.14316 -0.22418,-0.51214 -0.18,-0.81994 0.0607,-0.42329 0.29855,-0.61102 0.97608,-0.77052 l 0.89576,-0.21089 -0.15119,-2.1299 c -0.20025,-2.8212 0.26517,-3.40663 1.99223,-2.50591 0.37809,0.1972 1.26865,0.3592 1.97903,0.36 l 1.29161,0.002 -0.12928,-0.96384 c -0.12337,-0.91978 -0.082,-0.99639 0.90618,-1.67624 0.5695,-0.39182 1.36251,-1.01109 1.76223,-1.37616 1.87645,-1.71374 3.63581,-2.80944 5.93023,-3.69326 0.9178,-0.35352 0.99004,-0.45446 1.28277,-1.79256 0.79883,-3.6515 1.85682,-5.01694 2.30527,-2.97518 0.2232,1.0162 0.65261,0.89445 1.70289,-0.48276 0.50333,-0.66 0.98772,-1.2 1.07643,-1.2 0.40754,0 0.68954,0.71268 0.55271,1.3968 -0.082,0.41006 -0.0814,1.01548 0.001,1.34544 0.15287,0.60907 0.15832,0.61147 3.0895,1.36644 0.49697,0.12801 1.25297,0.54513 1.68,0.92697 2.08896,1.86787 4.35599,3.61872 4.81968,3.72233 0.2842,0.0635 1.00273,0.1439 1.59673,0.17873 0.95475,0.0559 1.08752,0.13286 1.14485,0.66329 0.10255,0.94876 -1.58227,2.73849 -2.93435,3.11707 -0.7964,0.22296 -1.0905,0.42636 -1.0905,0.75413 0,0.24684 0.0999,0.4488 0.22195,0.4488 0.31273,0 2.17233,1.98141 2.17546,2.31796 0.003,0.28779 2.95668,3.56782 4.17467,4.63541 2.67393,2.34375 4.14957,4.24035 4.35261,5.59426 0.14274,0.95189 0.06,1.32804 -0.5825,2.64679 -0.41188,0.84547 -0.93638,1.70158 -1.16554,1.90246 -1.58979,1.39358 -3.78482,1.53223 -5.74798,0.36312 -0.72037,-0.429 -1.49176,-0.888 -1.7142,-1.02 -0.22244,-0.132 -0.72619,-0.46762 -1.11945,-0.74583 -0.63365,-0.44827 -1.91174,-1.04066 -4.67502,-2.16689 -1.40638,-0.57321 -3.42377,-1.04143 -4.50001,-1.04443 -1.0345,-0.003 -1.98,0.60005 -1.98,1.26262 0,0.168 -0.351,0.843 -0.78,1.5 -0.98331,1.50588 -1.25619,2.09868 -2.26236,4.91453 -1.77009,4.95374 -2.54371,8.44533 -3.19056,14.39999 -0.30115,2.77236 -0.36041,12.35907 -0.11546,18.68014 l 0.1798,4.64014 1.22429,-0.10577 c 2.37236,-0.20499 5.54591,-0.72907 5.6834,-0.93855 0.13701,-0.20875 1.22991,-0.44208 4.3009,-0.91816 0.858,-0.13304 1.83125,-0.35139 2.16278,-0.48526 0.33154,-0.13385 1.14154,-0.33746 1.8,-0.45245 3.01366,-0.52629 10.66601,-2.74193 14.69974,-4.25609 0.82639,-0.3102 1.69579,-0.564 1.932,-0.564 0.23621,0 0.53208,-0.0981 0.65748,-0.21806 0.1254,-0.11993 1.092,-0.51106 2.148,-0.86914 1.056,-0.3581 2.19,-0.78247 2.52,-0.943 0.33,-0.16056 1.086,-0.5106 1.68,-0.77789 0.594,-0.26729 2.106,-0.97383 3.36,-1.57008 1.254,-0.59626 2.874,-1.36219 3.6,-1.70213 0.726,-0.33991 2.22972,-1.10892 3.34161,-1.70887 1.11189,-0.59995 2.12122,-1.09083 2.24295,-1.09083 0.12174,0 0.50801,-0.1986 0.85839,-0.44133 0.35037,-0.24271 1.71705,-1.01499 3.03705,-1.71612 4.64333,-2.46643 5.04416,-2.69316 5.52,-3.12238 0.76864,-0.69336 3.05519,-1.695 3.52731,-1.54514 0.2892,0.0918 0.43269,0.0146 0.43269,-0.23268 0,-0.20352 0.351,-0.54994 0.78,-0.76983 1.96025,-1.0048 9.53795,-6.19934 10.62844,-7.28587 0.26864,-0.26765 0.59264,-0.4889 0.72,-0.49166 0.12736,-0.003 0.96744,-0.70642 1.86685,-1.56372 0.8994,-0.85728 2.2494,-2.00926 3,-2.55994 0.75059,-0.55068 1.40071,-1.089 1.44471,-1.19628 0.044,-0.10728 0.21279,-0.19504 0.37509,-0.19504 0.16231,0 0.60552,-0.324 0.98491,-0.72 0.37939,-0.396 0.85983,-0.72 1.06765,-0.72 0.20782,0 1.17042,-0.8623 2.13913,-1.91619 1.36377,-1.48373 4.25713,-3.84381 4.71233,-3.84381 0.0354,0 0.53612,-0.44254 1.11265,-0.98343 0.57653,-0.54086 1.40388,-1.31733 1.83856,-1.72548 0.43468,-0.40814 0.96593,-1.11213 1.18056,-1.56441 0.21462,-0.45228 0.74997,-1.17173 1.18967,-1.59876 1.16236,-1.12887 1.05417,-1.56869 -0.58055,-2.36016 -3.00846,-1.45659 -5.74435,-3.7068 -6.27238,-5.15892 -0.36201,-0.99557 -0.35456,-1.06961 0.21583,-2.14481 0.32494,-0.61251 1.32109,-1.83245 2.21367,-2.71099 0.89258,-0.87855 1.62288,-1.72236 1.62288,-1.8752 0,-0.1528 0.0927,-0.27784 0.20592,-0.27784 0.34321,0 4.44446,-4.15812 5.89766,-5.97944 1.95839,-2.45448 3.70623,-5.3752 4.68003,-7.82056 0.10513,-0.264 0.42182,-0.97784 0.70377,-1.58628 0.28194,-0.60848 0.51262,-1.1858 0.51262,-1.28297 0,-0.0971 0.20134,-0.46332 0.44742,-0.8137 0.24608,-0.35037 0.59488,-1.06905 0.77511,-1.59705 0.18023,-0.528 0.56632,-1.338 0.85798,-1.8 0.29165,-0.462 0.60574,-1.164 0.69797,-1.56 0.0922,-0.396 0.24107,-0.828 0.33074,-0.96 0.0897,-0.132 0.42195,-0.91006 0.7384,-1.72903 0.47439,-1.22775 0.68177,-1.50147 1.18181,-1.56 0.66939,-0.0783 1.02417,-0.91097 0.38817,-0.91097 -0.47293,0 -0.49528,-0.80357 -0.033,-1.18721 0.18952,-0.15727 0.41685,-0.6295 0.50518,-1.04938 0.31975,-1.51992 1.13117,-3.69352 2.30085,-6.16341 0.65638,-1.386 1.39595,-2.952 1.64349,-3.48 2.74256,-5.84974 5.13051,-10.2552 6.17799,-11.39755 0.30137,-0.32866 0.54792,-0.68542 0.54792,-0.79282 0,-0.22493 2.35505,-3.2611 3.45657,-4.45625 0.40889,-0.44366 1.20243,-1.00682 1.76343,-1.25148 0.561,-0.24465 1.02,-0.57518 1.02,-0.73447 0,-0.15931 0.15254,-0.46015 0.33897,-0.66854 0.45322,-0.50657 0.84075,-2.70471 1.02101,-5.79125 0.15862,-2.71563 0.048,-3.16548 -1.05854,-4.30764 -0.31973,-0.33 -1.17641,-1.518 -1.90371,-2.64 -0.72732,-1.122 -1.94508,-2.796 -2.70612,-3.72 -0.76106,-0.924 -1.74072,-2.274 -2.17701,-3 -0.4363,-0.726 -0.98446,-1.536 -1.21812,-1.8 -0.69622,-0.78662 -2.14591,-4.05055 -2.62317,-5.90599 -0.39337,-1.52928 -0.41893,-2.12487 -0.2194,-5.11248 0.12421,-1.85983 0.33675,-5.54153 0.47235,-8.18153 0.42569,-8.28893 0.84161,-11.62704 2.17308,-17.44061 0.36264,-1.5834 0.11835,-2.11939 -0.96597,-2.11939 -1.07876,0 -2.86477,-0.72794 -3.37382,-1.37508 -0.62344,-0.79258 -0.60612,-1.66505 0.0616,-3.10109 1.03274,-2.2211 2.43606,-4.21888 4.52125,-6.43658 1.78906,-1.90274 2.31444,-2.88115 2.87981,-5.36309 0.62489,-2.74313 1.35175,-4.55085 1.89981,-4.72481 0.2816,-0.0894 0.36468,-0.32486 0.29124,-0.82528 -0.0895,-0.61016 -0.2308,-0.72147 -1.09802,-0.86523 -0.54737,-0.0908 -1.42152,-0.47637 -1.94251,-0.85692 -1.1166,-0.81559 -1.19767,-0.82697 -1.77528,-0.24936 -0.5196,0.5196 -2.85125,0.86359 -3.68129,0.5431 -0.8812,-0.34023 -1.57885,-1.25352 -1.882,-2.46367 -0.20274,-0.80933 -0.42282,-1.1563 -0.79711,-1.25672 -0.78912,-0.2117 -0.87704,-0.18108 -0.87704,0.30543 0,0.69201 -0.69333,2.19413 -1.08149,2.34309 -1.0307,0.39461 -3.23849,-2.39654 -3.23849,-4.09512 0,-0.51316 -0.25184,-0.90909 -0.96828,-1.52234 -0.53255,-0.45586 -1.18744,-1.25842 -1.45531,-1.78349 -0.44045,-0.86333 -0.4621,-1.11535 -0.22636,-2.63474 0.14337,-0.92405 0.4152,-2.04991 0.60406,-2.50193 0.52034,-1.24536 2.03174,-3.43169 3.3012,-4.77538 0.62442,-0.66093 1.13742,-1.32943 1.14,-1.48552 0.0176,-1.06421 -3.20155,0.0327 -5.75531,1.96116 -0.726,0.54823 -1.914,1.33365 -2.64,1.74537 -0.726,0.41172 -2.25596,1.59204 -3.39991,2.62294 -1.14396,1.03089 -3.12549,2.73835 -4.40341,3.79435 -1.27793,1.056 -2.55348,2.16878 -2.83456,2.47286 -0.58283,0.63051 -2.50687,1.54961 -2.82821,1.35101 -0.37719,-0.23311 -0.23803,-0.52202 0.98609,-2.04732 0.66,-0.82236 1.2,-1.61513 1.2,-1.76167 0,-0.14657 1.31018,-1.61386 2.91151,-3.26066 1.60132,-1.64684 3.34771,-3.58822 3.88085,-4.31422 0.90277,-1.22935 1.68546,-2.0958 5.00049,-5.5356 0.70793,-0.73457 1.88115,-1.78411 2.60715,-2.3323 0.726,-0.5482 1.752,-1.37452 2.28,-1.83626 l 0.96,-0.83952 -0.0345,-1.71823 c -0.019,-0.94505 -0.13781,-1.78572 -0.26407,-1.86816 -0.38819,-0.25351 -0.78142,-1.16645 -0.78142,-1.81416 0,-0.33866 -0.0894,-0.61577 -0.19875,-0.61577 -0.10932,0 -0.55323,-0.945 -0.98648,-2.1 -1.50812,-4.0205 -1.97851,-5.22595 -2.41155,-6.18 -0.8601,-1.89492 -1.20322,-2.78172 -1.20322,-3.10973 0,-0.18338 -0.27,-0.65431 -0.6,-1.04649 -0.33,-0.39219 -0.6,-0.8382 -0.6,-0.99115 0,-0.15296 -0.27,-0.67544 -0.6,-1.16108 -0.33,-0.48564 -0.6,-1.03596 -0.6,-1.22294 0,-0.18701 -0.33668,-1.05293 -0.74818,-1.9243 -0.4115,-0.87136 -0.99111,-2.12431 -1.28804,-2.78431 -0.29692,-0.66 -0.87824,-1.93104 -1.29182,-2.82453 -0.41358,-0.8935 -0.75196,-1.73278 -0.75196,-1.86507 0,-0.13226 -0.31098,-0.91322 -0.69107,-1.73544 -0.38008,-0.82224 -0.81055,-1.76496 -0.95659,-2.09496 -0.14605,-0.33 -0.49399,-0.88339 -0.77321,-1.22973 -0.50971,-0.63228 -1.73392,-3.81699 -2.15659,-5.61027 -0.56997,-2.41819 -0.56892,-2.43043 0.32523,-3.77023 1.03225,-1.54673 1.71756,-2.18654 3.89223,-3.63379 0.924,-0.61493 2.436,-1.65895 3.36,-2.32006 0.924,-0.6611 2.3153,-1.60565 3.09179,-2.09897 0.77649,-0.49332 1.75431,-1.18656 2.17295,-1.54048 0.41863,-0.35395 1.88932,-1.18872 3.2682,-1.85501 2.73298,-1.32062 5.41908,-2.77817 5.98706,-3.24874 0.198,-0.16404 0.846,-0.48607 1.44,-0.71563 0.594,-0.22953 1.25328,-0.57281 1.46507,-0.76279 0.21178,-0.19001 0.91378,-0.53935 1.55998,-0.77635 1.20099,-0.44045 2.15492,-0.94157 3.61299,-1.89795 0.45281,-0.297 0.9659,-0.54 1.14026,-0.54 0.17434,0 0.59155,-0.216 0.92719,-0.48 0.33562,-0.264 0.8838,-0.48 1.2182,-0.48 0.33439,0 0.67473,-0.108 0.75631,-0.24 0.0816,-0.132 0.45823,-0.24 0.83702,-0.24 0.37877,0 0.84744,-0.15876 1.04148,-0.3528 0.36703,-0.367 0.57631,-0.45189 4.7215,-1.9152 1.386,-0.48928 2.74677,-1.035 3.02395,-1.21272 0.27718,-0.17772 1.24918,-0.39592 2.16001,-0.48489 1.45918,-0.14256 1.7832,-0.0948 2.72558,0.4019 1.11375,0.58702 1.97984,1.64662 3.01085,3.68371 0.33406,0.66 0.87384,1.632 1.19955,2.16 0.3257,0.528 0.59395,1.14651 0.59611,1.37446 0.002,0.22798 0.26899,0.58814 0.59294,0.8004 0.61563,0.40337 4.06714,5.13564 4.80396,6.58656 0.23422,0.46123 1.63596,2.67458 3.11501,4.91858 1.47902,2.244 3.27293,5.106 3.98643,6.36 0.71349,1.254 1.40714,2.40413 1.54144,2.55586 0.13431,0.1517 0.67618,0.99624 1.20418,1.87675 0.528,0.88051 1.3663,2.24702 1.86288,3.03672 0.49661,0.7897 1.22899,2.08178 1.62754,2.87129 l 0.72463,1.43549 2.21246,-0.14621 c 1.21687,-0.0804 2.42849,-0.2383 2.69249,-0.35083 0.264,-0.11254 1.074,-0.33185 1.8,-0.48737 0.726,-0.15552 2.562,-0.69317 4.08,-1.19477 1.518,-0.5016 3.138,-0.98561 3.6,-1.07556 0.462,-0.0899 2.17692,-0.4836 3.81094,-0.87475 2.94684,-0.70541 3.66026,-0.72802 5.12906,-0.16251 0.4613,0.17763 0.66,0.42432 0.66,0.81948 0,0.66183 -0.60005,1.0951 -2.28,1.64628 -0.66,0.21656 -2.01,0.78255 -3,1.2578 -2.08378,1.00029 -2.38351,1.11816 -3.84,1.51015 -0.594,0.15986 -1.80312,0.65181 -2.68697,1.09325 -0.88382,0.44143 -2.16211,0.96746 -2.84066,1.16896 -0.67855,0.20151 -1.62941,0.61244 -2.11303,0.91318 -0.48365,0.30074 -1.41934,0.76313 -2.07934,1.02756 -1.01306,0.40586 -1.2125,0.59045 -1.28028,1.18495 -0.0442,0.38731 0.19154,1.41295 0.52375,2.27923 1.33426,3.47909 1.42267,4.14056 1.3164,9.84636 -0.0907,4.87056 -0.066,5.28869 0.31241,5.28869 0.22598,0 0.74774,-0.28344 1.15944,-0.62985 0.4117,-0.34644 0.79846,-0.57996 0.85946,-0.51898 0.15783,0.15785 -0.55305,1.52182 -0.97615,1.87296 -0.19526,0.16205 -0.35503,0.42278 -0.35503,0.57938 0,0.37908 2.92375,3.50295 3.27514,3.49932 0.48616,-0.005 1.73616,1.64011 1.89679,2.49639 0.18045,0.96189 -0.16385,2.15935 -1.11012,3.86078 -0.90274,1.62319 -1.05929,2.65466 -0.60219,3.96758 0.20537,0.58983 0.37496,1.37976 0.37688,1.75539 0.004,0.68791 -0.66545,2.07703 -1.00025,2.07703 -0.0992,0 -0.56184,0.3816 -1.02826,0.84799 -0.93057,0.9306 -1.09142,1.6824 -0.40641,1.89982 0.24285,0.0771 0.58293,0.40428 0.75571,0.7271 0.26599,0.49704 0.24907,0.79378 -0.11045,1.9368 -0.41028,1.30435 -0.40754,1.89847 0.019,4.13163 0.20098,1.0522 -0.2555,2.06025 -1.29034,2.84959 -0.70545,0.53805 -1.19366,0.67826 -2.8086,0.80652 -1.0751,0.0854 -2.10216,0.24636 -2.28232,0.35772 -0.18017,0.11136 -0.71393,0.28404 -1.18608,0.38373 -1.26092,0.26628 -2.96333,0.92655 -3.3974,1.31768 -0.20839,0.18777 -0.73905,0.34142 -1.17924,0.34142 -0.44018,0 -1.37464,0.189 -2.07662,0.42 -0.98674,0.32472 -1.24786,0.5107 -1.15102,0.81979 0.0689,0.21991 0.009,0.47199 -0.13418,0.56019 -0.33362,0.20618 -1.44005,1.95434 -1.44005,2.27524 0,0.13464 0.20983,0.24478 0.46627,0.24478 0.52068,0 1.71929,0.65496 3.44532,1.88261 0.73064,0.51965 1.365,1.24022 1.73542,1.97124 0.32112,0.63369 0.69391,1.22021 0.82843,1.30332 0.1345,0.0831 0.24456,0.43598 0.24456,0.7841 0,1.12767 2.21369,3.97978 4.05055,5.21873 0.58714,0.396 1.32864,0.89659 1.64782,1.11242 0.31918,0.21584 0.98119,0.45653 1.47115,0.53487 1.26286,0.20193 2.29008,1.31285 2.08354,2.25326 -0.17916,0.81574 -2.06998,2.88043 -3.15749,3.44786 -0.72149,0.37647 -0.74966,0.45296 -0.91418,2.4805 -0.20091,2.47591 -0.27382,2.32682 2.52861,5.17109 1.10551,1.122 2.334,2.57112 2.73,3.22029 0.396,0.64916 0.99123,1.62116 1.32271,2.16 0.33149,0.53883 0.75185,1.41171 0.93411,1.93971 0.47249,1.36877 2.05356,4.65977 2.71169,5.64439 0.3072,0.45958 0.75424,1.32161 0.99343,1.91561 0.23921,0.594 0.69885,1.62 1.02144,2.28 1.34225,2.74613 2.7365,7.91232 2.73657,10.14 5e-5,0.726 0.0993,1.02 0.34436,1.02 0.71551,0 3.81561,-0.73822 4.42269,-1.05315 1.04739,-0.54336 1.77195,-0.79581 3.033,-1.05684 2.31382,-0.47892 4.45143,-1.16484 5.06513,-1.6253 0.34068,-0.25558 1.39238,-1.47756 2.33714,-2.7155 1.82931,-2.397 1.65564,-2.28087 5.43773,-3.63624 0.462,-0.16558 1.24858,-0.46575 1.74797,-0.66704 0.69185,-0.2789 0.97462,-0.29935 1.188,-0.086 0.15401,0.154 0.51835,0.28003 0.80964,0.28003 0.5233,0 0.5281,-0.0337 0.4031,-2.82 -0.0696,-1.551 -0.15794,-6.114 -0.19634,-10.14 -0.0384,-4.026 -0.19162,-10.398 -0.34051,-14.16 -0.14887,-3.762 -0.30922,-8.406 -0.35631,-10.32 -0.0832,-3.38165 -0.31891,-7.01292 -0.88792,-13.68 -0.15209,-1.782 -0.30965,-4.266 -0.35009,-5.52 -0.0405,-1.254 -0.18075,-3.684 -0.31174,-5.4 -0.13099,-1.716 -0.35906,-4.74 -0.50681,-6.72 -0.32162,-4.3097 -0.60782,-7.48882 -1.08028,-12 -0.86859,-8.29339 -1.03282,-10.63435 -1.07756,-15.36 -0.0149,-1.57709 0.0289,-1.72044 0.71528,-2.34 1.26292,-1.14002 3.57408,-0.77237 4.7892,0.76186 0.40389,0.50997 0.73437,1.03346 0.73437,1.1633 0,0.12984 0.17326,0.37985 0.38501,0.5556 1.01023,0.83842 1.53802,4.872 1.3565,10.36726 -0.0893,2.70187 -0.0478,4.09929 0.12778,4.31088 0.14292,0.1722 0.33377,0.87024 0.42408,1.55117 0.16106,1.21411 0.57401,2.00851 2.54707,4.89976 1.11437,1.63294 1.50982,3.47136 1.27925,5.94727 -0.0934,1.0026 -0.28538,2.0389 -0.42674,2.3029 -0.14134,0.264 -0.33461,0.858 -0.42951,1.32 -0.0949,0.462 -0.57317,1.96829 -1.06289,3.34728 -0.85075,2.39561 -0.88653,2.6201 -0.80308,5.04 0.0808,2.3423 0.14757,2.64098 0.88874,3.97272 0.44078,0.792 1.53821,2.196 2.43871,3.12 3.15017,3.23239 3.33884,4.35454 1.65022,9.81581 -0.57744,1.86753 0.29637,4.67537 1.98617,6.38213 1.18178,1.19364 1.71833,2.70873 1.57807,4.45608 -0.0685,0.85286 -0.23059,1.6846 -0.36029,1.84831 -0.12969,0.16373 -0.54281,1.17396 -0.91805,2.24496 l -0.68227,1.94728 0.47062,1.48781 c 0.43149,1.36411 0.56882,1.54143 1.65187,2.13271 1.79438,0.97964 2.14147,1.59653 2.14841,3.81828 0.003,1.02665 -0.0813,2.46063 -0.18775,3.18663 -0.19236,1.31191 -0.18747,1.32689 0.8008,2.44653 0.54692,0.61961 1.19074,1.18887 1.43076,1.26504 0.24,0.0762 0.63056,0.54123 0.86789,1.03347 0.23734,0.49221 0.57478,1.17765 0.74986,1.52316 0.18912,0.3732 0.30079,1.29873 0.27511,2.28 -0.0607,2.31914 0.38162,4.29595 1.18538,5.29757 0.36756,0.45804 0.86357,1.07428 1.10225,1.36946 0.53832,0.66569 0.60696,2.34934 0.18041,4.42378 -0.23069,1.1218 -0.24202,1.58935 -0.0434,1.788 0.40042,0.40041 0.32655,0.65299 -0.19101,0.65299 -0.64911,0 -0.69706,-0.27629 -0.55402,-3.19159 0.1171,-2.38664 0.0863,-2.64684 -0.3894,-3.29028 -0.28411,-0.38429 -0.51658,-0.80727 -0.51658,-0.93996 0,-0.1327 -0.19663,-0.34652 -0.43696,-0.47516 -0.79467,-0.42528 -1.72212,-3.28576 -1.89363,-5.84044 -0.14186,-2.11296 -0.69547,-3.18939 -2.25201,-4.37866 -0.78644,-0.60091 -1.5013,-1.41547 -1.86867,-2.12938 -0.55843,-1.08513 -0.57631,-1.2323 -0.291,-2.39534 0.16721,-0.68155 0.35307,-1.77919 0.41304,-2.43919 0.13087,-1.44003 -0.37951,-2.41481 -1.79018,-3.41916 -0.50986,-0.36298 -1.21313,-1.14617 -1.56286,-1.74041 -0.34973,-0.59424 -0.76757,-1.26442 -0.92856,-1.48932 -0.24026,-0.33566 -0.15758,-0.7439 0.46181,-2.28 1.66111,-4.11962 1.91376,-6.09569 0.94202,-7.36845 -0.31185,-0.40846 -0.89791,-1.09659 -1.30236,-1.52916 -0.40445,-0.43256 -0.80424,-1.10009 -0.88843,-1.48342 -0.0842,-0.3833 -0.29465,-0.81442 -0.46771,-0.95806 -0.17307,-0.14364 -0.45106,-0.74829 -0.61776,-1.34368 -0.25788,-0.92105 -0.24082,-1.37084 0.11441,-3.01491 0.22963,-1.06279 0.56788,-2.2206 0.7517,-2.57289 0.432,-0.828 0.43109,-2.87758 -0.002,-3.91124 -0.18641,-0.4451 -1.02612,-1.4158 -1.86602,-2.15712 -1.7809,-1.57178 -3.12771,-3.64077 -3.55443,-5.46048 -0.41839,-1.78413 -0.19159,-5.51462 0.44695,-7.3517 1.73319,-4.98622 2.0402,-6.1092 2.14256,-7.83718 0.12244,-2.06671 -0.35811,-4.03298 -1.3021,-5.32768 -0.92947,-1.27479 -2.15503,-3.7807 -2.81534,-5.75647 -0.61882,-1.85172 -0.62628,-1.95413 -0.47381,-6.50672 0.13653,-4.07664 0.10781,-4.69262 -0.24202,-5.19208 -0.2183,-0.31167 -0.40034,-1.00164 -0.40454,-1.53327 -0.009,-1.08139 -0.23703,-1.45473 -1.38243,-2.2589 -1.42257,-0.99879 -2.70856,-0.023 -2.33589,1.7723 0.0822,0.396 0.24204,1.854 0.35522,3.24 0.11316,1.386 0.3924,4.68 0.62052,7.32 0.22812,2.64 0.44967,5.394 0.49231,6.12 0.0427,0.726 0.25112,3.156 0.46325,5.4 0.21214,2.244 0.45972,6.024 0.55018,8.4 0.0904,2.376 0.25421,4.45879 0.36386,4.62845 0.10966,0.16965 0.29292,1.62765 0.40726,3.24 0.11433,1.61234 0.3168,3.90355 0.4499,5.09155 0.13313,1.188 0.36207,3.888 0.5088,6 0.14671,2.112 0.37848,5.46 0.51502,7.44 0.13653,1.98 0.29786,5.49 0.35849,7.8 0.12967,4.94006 0.18532,6.17702 0.52905,11.76 0.1422,2.31 0.29899,5.496 0.34841,7.08 0.0494,1.584 0.17479,5.013 0.27862,7.62 l 0.18876,4.74 h 1.36948 c 1.19232,0 1.48536,0.099 2.26539,0.76526 1.01858,0.87005 1.58143,1.82227 1.58143,2.67547 0,0.32151 0.42331,1.21851 0.94073,1.9933 0.51739,0.77482 1.00663,1.6781 1.08722,2.00736 0.0806,0.32923 0.0449,2.01041 -0.0794,3.73596 -0.22089,3.06694 -0.66309,4.69308 -1.59425,5.86265 -0.15763,0.198 -0.41721,0.9 -0.57681,1.56 -0.48207,1.99332 -1.50264,3.30881 -3.62148,4.668 -1.81963,1.16724 -1.95288,1.212 -3.60783,1.212 -1.35444,0 -1.97145,-0.12708 -2.913,-0.6 -1.34023,-0.67315 -2.11514,-0.76783 -2.11514,-0.25841 0,0.56822 -1.24313,1.8612 -2.14879,2.23495 -0.46817,0.19318 -1.01321,0.48242 -1.21121,0.64272 -0.198,0.16032 -1.032,0.42317 -1.85333,0.58414 -0.82133,0.16096 -2.04405,0.57837 -2.71716,0.9276 -1.08485,0.56284 -1.31573,0.82764 -2.03328,2.33196 -1.18005,2.47399 -2.41941,3.56568 -5.39623,4.75329 -0.33,0.13167 -0.762,0.33703 -0.96,0.45639 -0.9769,0.58888 -1.98722,0.92736 -2.76806,0.92736 -1.53996,0 -1.79194,0.29126 -1.79194,2.07139 0,1.75428 0.13423,2.01537 2.10732,4.09944 1.01081,1.06764 1.52986,1.91253 2.71466,4.41885 0.17736,0.3752 0.92616,3.12569 2.86676,10.53032 0.50162,1.914 1.13368,3.99456 1.4046,4.62345 0.27091,0.6289 0.60314,2.0329 0.73828,3.12 0.24915,2.00393 1.26845,5.87475 2.77779,10.54855 0.45681,1.41461 0.83059,2.74282 0.83059,2.95159 0,0.20878 0.22272,0.83338 0.49495,1.388 0.27221,0.55461 0.82071,2.2504 1.21887,3.7684 1.07102,4.08346 1.04215,3.99029 2.12042,6.84 0.54938,1.452 1.059,2.856 1.13244,3.12 0.21204,0.76234 2.21959,5.95601 2.48268,6.42286 0.24077,0.4273 0.45749,1.06286 1.42133,4.16861 0.65229,2.1018 0.51391,2.47173 -1.63887,4.38084 -2.3524,2.08615 -2.61604,2.19648 -8.0862,3.38453 -0.53589,0.1164 -1.42689,0.50791 -1.98,0.87002 -0.85185,0.55774 -1.00562,0.78216 -1.00562,1.4677 0,1.81116 -1.42296,3.12196 -3.0917,2.848 -2.89508,-0.47529 -3.14633,-0.46809 -3.75922,0.10769 -0.324,0.30439 -0.58908,0.6528 -0.58908,0.77429 0,0.12146 -0.49958,0.96545 -1.11017,1.87553 -1.85438,2.76391 -3.78093,3.62841 -6.33141,2.84112 -0.86794,-0.26791 -2.82024,-0.45749 -5.51842,-0.53587 l -1.56,-0.0453 -0.29208,0.96 c -0.16066,0.528 -0.57701,1.93028 -0.92527,3.11616 -0.86011,2.92894 -2.92726,6.81235 -3.63807,6.8346 -0.1625,0.005 -0.366,0.30624 -0.45225,0.66924 -0.0862,0.363 -0.29592,0.822 -0.46599,1.02 -0.77371,0.90087 -1.07541,2.55471 -1.204,6.6 -0.14441,4.54152 -0.52899,6.92081 -1.49352,9.24 -0.62362,1.4994 -0.64656,1.70799 -0.59069,5.36933 l 0.0581,3.80935 -0.88505,0.81065 c -0.48677,0.44587 -0.9731,0.81067 -1.08074,0.81067 -0.10764,0 -0.65355,0.20638 -1.21311,0.45862 -0.55956,0.25224 -1.58301,0.63847 -2.27433,0.85829 -0.71916,0.22864 -1.46364,0.6624 -1.74,1.01373 -0.49064,0.62374 -0.65285,1.50936 -0.27646,1.50936 0.11362,0 0.65174,0.68835 1.19582,1.52967 1.12786,1.74396 1.67919,2.17356 3.31532,2.58324 1.07486,0.26913 3.07217,1.11667 3.92227,1.66437 0.198,0.12756 0.83105,0.52687 1.40676,0.88733 0.57571,0.36046 1.51423,1.00639 2.0856,1.43539 0.65155,0.48922 1.31647,0.78 1.78351,0.78 0.55155,0 1.04417,0.28013 1.89929,1.08 l 1.15462,1.08 h 2.25511 c 1.77665,0 2.43333,0.0986 3.09511,0.46332 0.462,0.25464 1.0703,0.57099 1.3518,0.70296 0.65575,0.30751 1.38485,1.33514 1.90651,2.68718 0.62429,1.61804 0.88555,1.81767 1.96023,1.49772 0.49581,-0.1476 1.38679,-0.44863 1.98,-0.66895 0.73156,-0.27173 2.43012,-0.47244 5.28,-0.62395 7.65216,-0.4068 7.85678,-0.46603 8.44999,-2.44601 0.36897,-1.23153 1.55405,-2.15284 2.63561,-2.04904 0.6137,0.0589 0.8134,0.19989 0.87249,0.616 0.0568,0.3997 -0.0886,0.60245 -0.56076,0.78195 -0.59345,0.22565 -0.62599,0.31253 -0.47193,1.26038 0.091,0.55994 0.25771,1.116 0.37044,1.23574 0.36549,0.38815 1.76438,-0.19071 2.08804,-0.86405 0.50763,-1.05598 3.70044,-4.06248 4.23044,-3.98354 0.75518,0.11244 0.70027,0.53548 -0.19916,1.53427 -0.46341,0.51461 -0.84506,1.19181 -0.84813,1.50492 -0.005,0.54542 0.017,0.55301 0.53443,0.18141 0.297,-0.21333 1.188,-0.70236 1.98,-1.08672 0.792,-0.38438 1.85986,-1.033 2.373,-1.44141 0.51314,-0.40841 1.01978,-0.74256 1.12584,-0.74256 0.5305,0 0.42002,0.58349 -0.25634,1.35381 -0.8341,0.95 -1.2025,1.74687 -1.2025,2.60112 v 0.56369 l 1.17866,-0.43082 c 0.64824,-0.23695 1.79984,-0.87564 2.55905,-1.41931 0.75924,-0.54368 1.46923,-0.98849 1.57776,-0.98849 0.10853,0 0.72389,-0.324 1.36747,-0.72 1.22072,-0.75111 2.19706,-0.93617 2.19706,-0.41645 0,0.16697 -0.216,0.70656 -0.48,1.19914 -0.49606,0.92551 -0.64346,2.09731 -0.26383,2.09731 0.3414,0 2.44462,-1.03325 3.55906,-1.74847 0.55838,-0.35835 1.11127,-0.65153 1.22865,-0.65153 0.11739,0 0.76954,-0.44278 1.44924,-0.98398 1.60565,-1.27843 2.0269,-1.15272 1.89317,0.56494 -0.0539,0.69247 -0.18346,1.44804 -0.28783,1.67904 -0.10615,0.23486 -0.0915,0.42 0.0332,0.42 0.21972,0 1.90886,-0.91023 3.7883,-2.04139 1.95531,-1.17684 2.33751,-0.44969 1.07655,2.04823 l -0.72346,1.43316 1.26346,-0.003 c 1.20458,-0.003 1.30819,-0.0553 2.22345,-1.12023 1.41082,-1.64148 5.77385,-5.32075 6.53659,-5.51217 0.36226,-0.0909 0.80828,-0.31493 0.99113,-0.49781 0.18288,-0.18286 0.66994,-0.29964 1.08238,-0.25951 0.60873,0.0592 0.7637,0.192 0.82317,0.70538 0.0558,0.48159 -0.18744,0.89688 -1.02,1.74139 -0.6948,0.70479 -1.09327,1.322 -1.09327,1.69342 0,0.32143 -0.108,0.65119 -0.24,0.73277 -0.132,0.0816 -0.24,0.25723 -0.24,0.39033 0,0.32796 0.92415,0.0395 1.75248,-0.54698 0.78917,-0.55879 3.14712,-1.43335 4.00752,-1.48637 0.89854,-0.0554 0.90343,0.77748 0.01,1.63383 -0.40128,0.38445 -0.7296,0.84079 -0.7296,1.01409 0,0.37049 0.62429,0.42411 0.84173,0.0723 0.47808,-0.77356 6.35222,-3.84772 7.91827,-4.14393 0.95556,-0.18075 1.69145,0.33269 1.36121,0.94973 -0.13022,0.24331 -0.47424,0.65714 -0.76452,0.91968 -0.29028,0.26251 -0.74654,0.906 -1.01395,1.42994 -0.26741,0.52394 -0.70726,1.25162 -0.97743,1.61705 -0.66909,0.90501 -0.3714,1.0805 0.72444,0.427 0.82018,-0.48909 3.43102,-1.30293 5.17971,-1.61462 0.70509,-0.12566 1.61054,0.46011 1.61054,1.04194 0,0.17028 -0.51209,0.79344 -1.13798,1.3848 -0.6259,0.59138 -1.0482,1.16431 -0.93843,1.2732 0.22623,0.22444 7.28508,0.1896 9.95444,-0.0491 l 1.75804,-0.15722 0.43829,-1.02255 c 1.25602,-2.93013 3.27557,-3.7625 10.56564,-4.35458 2.00895,-0.16317 5.14503,-0.7223 5.88,-1.04834 0.264,-0.1171 1.02,-0.40395 1.68,-0.63742 1.58364,-0.56018 2.1204,-0.90494 3.86926,-2.48517 0.80808,-0.7302 2.18508,-1.69846 3.06,-2.1517 0.8749,-0.45326 1.58784,-0.93926 1.58429,-1.08 -0.007,-0.26664 -2.29308,-1.32804 -3.95355,-1.83538 -0.528,-0.16132 -1.2112,-0.45674 -1.51824,-0.65649 -0.53659,-0.34906 -0.5518,-0.44311 -0.39208,-2.42359 0.0914,-1.13326 0.31404,-2.49245 0.49476,-3.02045 0.18072,-0.528 0.33014,-1.1149 0.33206,-1.30423 0.002,-0.18932 0.20664,-0.78332 0.4549,-1.32 0.49641,-1.07307 1.68931,-4.54848 2.27078,-6.61577 0.63631,-2.26229 0.85865,-4.92571 1.00169,-12 0.16344,-8.08291 0.72962,-18.77844 1.18152,-22.32 0.45403,-3.55802 -0.0397,-11.9087 -0.92237,-15.6 -0.22956,-0.96007 -0.37493,-2.6863 -0.37802,-4.4887 -0.003,-1.69946 -0.12185,-3.18518 -0.2834,-3.53973 -0.29479,-0.64702 -0.31017,-0.53832 0.79167,-5.59157 0.44009,-2.0183 0.61454,-2.46 0.97157,-2.46 0.23935,0 0.43516,-0.108 0.43516,-0.24 0,-0.132 -0.108,-0.24 -0.24,-0.24 -0.37322,0 -0.29649,-0.50947 0.51442,-3.41599 0.41491,-1.48721 0.89251,-3.29801 1.06133,-4.02401 0.16881,-0.726 0.48175,-1.914 0.69542,-2.64 0.62532,-2.12467 0.75216,-2.58674 1.67796,-6.11316 0.48418,-1.84423 0.96706,-3.46423 1.07309,-3.6 0.10601,-0.13577 0.25406,-0.87261 0.32902,-1.63747 0.075,-0.76486 0.3485,-2.16886 0.60787,-3.12 0.53198,-1.95091 0.81312,-3.08983 1.61169,-6.52937 0.30648,-1.32 0.68218,-2.832 0.83487,-3.36 0.15269,-0.528 0.3594,-1.6104 0.45933,-2.40535 0.0999,-0.79495 0.29652,-1.82095 0.43685,-2.28 0.14031,-0.45905 0.32007,-1.48265 0.39943,-2.27465 0.0794,-0.792 0.26828,-2.00719 0.41981,-2.70041 0.27444,-1.25563 0.15835,-2.05759 -0.56265,-3.88725 -0.2604,-0.66082 0.12441,-3.22987 0.67236,-4.4886 0.18105,-0.41597 0.3292,-0.87927 0.3292,-1.02958 0,-0.15031 0.216,-0.69667 0.48,-1.21416 0.64712,-1.26847 0.60598,-2.77435 -0.12916,-4.72745 -0.80736,-2.14497 -1.389,-4.76162 -1.23454,-5.55393 0.0685,-0.35124 0.24086,-1.09325 0.38314,-1.64892 0.14224,-0.55565 0.41808,-2.14622 0.61296,-3.53458 0.31356,-2.23358 0.31293,-2.79441 -0.005,-4.86969 -0.19786,-1.29 -0.48449,-3.37143 -0.63699,-4.62543 -0.15249,-1.254 -0.41186,-2.41492 -0.57636,-2.57985 -0.16449,-0.16493 -0.36938,-0.92093 -0.4553,-1.68 -0.0859,-0.75907 -0.26566,-1.73599 -0.39943,-2.1709 -1.03011,-3.34867 -2.90902,-22.01777 -2.45057,-24.34925 0.17681,-0.89918 -0.43762,-0.88197 -1.0873,0.0304 -1.01289,1.42248 -2.93042,1.82707 -4.74816,1.00183 -0.77808,-0.35323 -1.14643,-0.73224 -1.62,-1.66675 -0.76584,-1.5113 -0.76476,-1.90178 0.009,-3.4296 1.10875,-2.18798 1.30999,-3.25192 1.53399,-8.10998 0.11851,-2.57074 0.1824,-4.70717 0.14196,-4.74761 -0.0404,-0.0404 -0.8527,0.0551 -1.80502,0.2124 -1.33262,0.22008 -2.70835,0.22152 -5.97238,0.006 -2.33248,-0.15386 -5.88151,-0.27909 -7.88673,-0.27833 -2.0052,0 -3.70128,-0.0883 -3.76904,-0.19797 -0.0678,-0.10963 -0.74916,-0.33802 -1.51418,-0.50751 -0.76502,-0.16946 -1.57656,-0.40574 -1.80341,-0.52504 -0.57139,-0.30048 -1.54176,-2.06463 -1.7316,-3.14808 -0.11705,-0.66804 -0.27494,-0.9 -0.61265,-0.9 -0.25022,0 -0.51158,0.0916 -0.58082,0.20364 -0.1495,0.24189 -3.0439,1.24382 -6.03799,2.09011 -1.61081,0.4553 -2.95078,0.63881 -5.38447,0.7374 l -3.24,0.13125 -2.15835,-0.86121 c -1.18709,-0.47364 -2.2757,-0.86119 -2.4191,-0.86119 -0.14343,0 -0.91788,-0.59465 -1.72102,-1.32147 -1.21423,-1.09881 -1.57298,-1.61438 -2.12933,-3.06 -0.74673,-1.94035 -1.53297,-3.04166 -2.467,-3.45561 -1.81402,-0.804 -3.3852,-3.19829 -3.3852,-5.15859 0,-1.1934 -0.29292,-1.75469 -1.13868,-2.18196 -0.36372,-0.18374 -0.87732,-0.45535 -1.14132,-0.60355 -0.264,-0.14822 -1.32399,-0.66151 -2.35551,-1.14065 -2.56963,-1.19354 -4.21845,-2.99589 -4.236,-4.63041 -0.006,-0.60975 0.19157,-0.97551 0.86009,-1.58796 0.73615,-0.6744 1.10434,-0.81776 2.41481,-0.94013 0.85044,-0.0794 2.10657,-0.0328 2.79141,0.10363 1.18995,0.23698 1.86046,0.35954 5.06523,0.9258 0.78101,0.138 1.84658,0.2509 2.36796,0.2509 h 0.94793 l -0.17223,-1.6082 c -0.0947,-0.88452 -0.27648,-1.88239 -0.40387,-2.2175 -0.37018,-0.97363 -0.0336,-2.08906 0.81197,-2.69119 0.93053,-0.66259 4.19784,-0.90574 4.41921,-0.32885 0.0706,0.18394 0.90248,0.79073 1.84868,1.34844 1.78632,1.05288 2.29596,1.37662 3.24199,2.0593 0.35606,0.25694 1.32249,0.4728 2.64,0.58968 3.56184,0.31593 4.45205,0.50088 5.22098,1.08456 0.40846,0.31008 0.89446,0.56628 1.08,0.56937 0.18555,0.003 0.87735,0.32367 1.53735,0.71239 2.26442,1.33376 3.09026,1.62293 5.04,1.76484 l 1.92,0.13976 0.62714,-0.90838 c 0.88733,-1.28518 2.0801,-1.78418 4.65286,-1.94654 1.80708,-0.11405 2.32589,-0.24346 3.17522,-0.792 1.25117,-0.80806 1.72654,-0.81528 3.66478,-0.0557 1.8449,0.72302 2.6022,0.74565 4.35331,0.1302 0.73517,-0.25839 2.08142,-0.58215 2.99167,-0.71945 3.37867,-0.50962 3.16997,-0.41945 3.80023,-1.64194 0.32007,-0.62085 0.96125,-1.70971 1.42481,-2.41968 0.85939,-1.31618 1.71871,-4.31064 2.31559,-8.06913 0.88726,-5.58711 1.17017,-7.50019 1.81004,-12.24 0.72016,-5.33453 0.8208,-5.99695 1.05722,-6.96 0.41558,-1.69279 0.333,-1.98643 -0.70793,-2.51748 -0.95337,-0.48639 -1.68494,-1.50331 -1.68494,-2.34226 0,-0.56666 1.48231,-2.10182 3.06192,-3.17109 0.67505,-0.45696 1.34169,-1.0818 1.48147,-1.38857 0.13978,-0.30675 0.68669,-1.14327 1.21536,-1.85892 0.5287,-0.71566 0.96125,-1.39351 0.96125,-1.50636 0,-0.11283 0.21285,-0.6457 0.47299,-1.18414 0.26014,-0.53844 0.54132,-1.44972 0.62486,-2.02507 0.27075,-1.86497 1.02332,-4.07918 2.07365,-6.10135 0.57835,-1.11346 1.10069,-1.67278 3.27142,-3.50311 1.0146,-0.85548 1.00473,-1.75966 -0.0341,-3.12161 -0.8167,-1.07078 -2.35395,-2.10917 -3.13267,-2.11608 -0.47592,-0.004 -3.27617,1.63145 -3.27617,1.91371 0,0.66783 -5.05265,1.62139 -7.22691,1.36387 -1.47468,-0.17465 -2.827,-0.87511 -3.77582,-1.95576 -0.78494,-0.89402 -0.8346,-1.04654 -0.86126,-2.64578 -0.0154,-0.92054 -0.0505,-0.96283 -0.85601,-1.02862 -1.29739,-0.10598 -2.1493,-0.5345 -2.53133,-1.27327 -0.47777,-0.92393 -0.42871,-1.90214 0.13133,-2.61811 0.77181,-0.98671 0.62189,-1.2 -0.84353,-1.2 -1.17233,0 -1.42594,-0.0938 -2.22,-0.82152 -0.88771,-0.81346 -0.89669,-0.84036 -0.91841,-2.74954 -0.0122,-1.0846 -0.14455,-2.07578 -0.30225,-2.26581 -0.15932,-0.19195 -0.92696,-0.39372 -1.77807,-0.46733 -2.62898,-0.22742 -3.78144,-1.15886 -3.77275,-3.0492 0.007,-1.53504 1.11994,-6.2466 1.47545,-6.2466 0.10975,0 0.19956,-0.23611 0.19956,-0.52469 0,-0.28857 0.22701,-1.33375 0.50448,-2.3226 0.61545,-2.19331 0.52766,-2.85595 -0.71595,-5.40326 -1.2088,-2.47601 -1.70853,-4.04151 -1.70853,-5.35219 0,-0.57051 -0.081,-1.03512 -0.18,-1.03251 -0.099,0.003 -0.936,0.11907 -1.86,0.25875 -0.924,0.1397 -3.09735,0.24998 -4.82967,0.24506 -3.62805,-0.0103 -4.41055,-0.29215 -5.32416,-1.9177 -0.61581,-1.09572 -0.66717,-1.67181 -0.16617,-1.86408 0.198,-0.076 0.36,-0.29659 0.36,-0.49027 0,-0.48557 2.47867,-3.05357 4.08,-4.22702 0.726,-0.53203 1.482,-1.11003 1.68,-1.28443 0.198,-0.17441 1.008,-0.85085 1.8,-1.5032 0.792,-0.65234 2.493,-2.20406 3.78,-3.44829 2.14836,-2.07698 2.70297,-2.81357 2.11841,-2.81357 -0.12188,0 -0.55388,-0.2796 -0.96,-0.62133 -1.06268,-0.89417 -1.02164,-1.86176 0.10159,-2.39475 0.462,-0.21924 0.84,-0.50822 0.84,-0.64217 0,-0.13396 -0.378,-0.66196 -0.84,-1.17336 -1.30339,-1.44268 -1.09603,-2.60956 0.71961,-4.04959 0.79455,-0.63019 1.10415,-0.738 1.8,-0.62685 l 0.84039,0.1342 0.41345,-1.85308 c 0.22742,-1.01919 0.47892,-2.51 0.55891,-3.31292 0.14436,-1.44897 0.1391,-1.46505 -0.7068,-2.16 -1.69039,-1.38871 -5.31857,-5.06668 -5.91214,-5.99325 -1.28025,-1.99855 -2.56447,-4.44701 -2.9903,-5.70132 -0.19889,-0.58577 -0.37181,-2.11155 -0.40092,-3.53779 -0.0465,-2.27576 0.0209,-2.71875 0.72864,-4.78779 1.15663,-3.38141 3.95642,-8.89128 5.54916,-10.92045 1.05417,-1.34307 2.00165,-1.6537 5.08879,-1.66843 2.21916,-0.0106 2.34096,0.0156 2.58682,0.55509 0.19032,0.41772 0.39139,0.53134 0.76663,0.4332 0.27993,-0.0732 0.92004,0.0769 1.42363,0.33379 0.50326,0.25676 1.02355,0.4668 1.15622,0.4668 0.13268,0 0.74772,0.3212 1.36676,0.71379 0.61903,0.39257 1.70268,0.88156 2.40813,1.08664 0.70543,0.20508 1.79571,0.64973 2.42283,0.98811 2.61057,1.40865 7.9691,2.55247 12.30019,2.62557 1.56638,0.0265 3.01951,0.1957 3.84,0.44727 0.726,0.2226 1.59,0.46269 1.92,0.53357 0.33,0.0708 0.96605,0.29318 1.41341,0.49406 0.4944,0.22198 1.17316,0.31697 1.73061,0.24221 0.61908,-0.083 1.00781,-0.0139 1.19597,0.21288 0.17498,0.21081 0.7541,0.3359 1.55522,0.3359 0.70205,0 1.33565,0.0958 1.40796,0.21279 0.0723,0.11704 0.51116,0.28401 0.97512,0.37106 0.464,0.087 1.03217,0.36012 1.26267,0.60684 0.23047,0.24672 1.67513,1.10801 3.21036,1.91395 2.25972,1.1863 3.06716,1.76151 4.23985,3.02038 1.08442,1.16412 1.60978,1.55498 2.08997,1.55498 0.45418,0 1.1405,0.45547 2.35071,1.56 0.94008,0.858 1.8395,1.56 1.99869,1.56 0.15919,0 0.32544,0.0892 0.36946,0.19827 0.0916,0.22694 3.69583,2.68173 3.93746,2.68173 0.0876,0 0.51034,0.297 0.93955,0.66 0.42924,0.363 1.39848,1.092 2.15388,1.62 0.7554,0.528 1.49847,1.12915 1.65128,1.33589 0.1528,0.20676 1.08782,1.0333 2.07782,1.83677 0.99,0.80347 2.15446,1.83103 2.5877,2.28348 0.82978,0.86657 3.6523,5.73883 3.6523,6.30468 0,0.18197 0.11537,0.40214 0.25637,0.48929 0.141,0.0871 0.19838,0.30952 0.12753,0.49418 -0.0709,0.18463 -0.027,0.33571 0.0975,0.33571 0.12446,0 0.40627,0.351 0.62623,0.78 0.21996,0.429 0.98551,1.37273 1.70126,2.09717 0.71573,0.72444 1.63923,1.91244 2.0522,2.64 0.41296,0.72756 0.93367,1.45519 1.15708,1.61695 0.22344,0.16179 0.47477,0.65945 0.55853,1.10595 0.0838,0.44649 0.42029,1.4956 0.74782,2.33138 0.32753,0.83575 0.59388,1.90409 0.59191,2.37406 -0.005,1.10484 -1.04623,4.45862 -1.53718,4.94956 -0.20858,0.20856 -0.37922,0.62832 -0.37922,0.93276 0,0.97524 -0.66658,2.19204 -1.82815,3.33723 -0.62201,0.61322 -1.32915,1.11494 -1.5714,1.11494 -0.27903,0 -0.44045,0.17422 -0.44045,0.47542 0,0.32352 -0.21089,0.52173 -0.66,0.62035 -0.363,0.0797 -1.524,0.35973 -2.58,0.62229 -1.19825,0.29796 -2.28086,0.42502 -2.88,0.33802 -0.65414,-0.095 -1.18939,-0.0156 -1.68,0.24926 -0.396,0.21377 -1.74218,0.61952 -2.9915,0.90166 -2.06897,0.46726 -2.32042,0.58572 -2.82,1.3285 -0.30168,0.44851 -0.5485,1.16294 -0.5485,1.58762 0,0.42468 -0.22841,1.06253 -0.50758,1.41742 -0.46788,0.59481 -0.48379,0.73344 -0.20361,1.77237 0.16718,0.6199 0.45487,1.39709 0.63929,1.72709 0.18444,0.33 0.52567,1.41 0.7583,2.4 l 0.42298,1.8 1.96579,1.32 c 1.0812,0.726 2.5559,1.6825 3.27713,2.12554 1.69651,1.04217 1.9139,1.30759 1.58076,1.93008 -0.3246,0.60652 -2.12552,1.86307 -2.97622,2.07657 -0.97524,0.24478 -0.76632,0.74587 0.38316,0.91906 0.561,0.0845 1.41631,0.21737 1.90073,0.29522 0.48439,0.0778 1.12125,0.39759 1.41523,0.71052 l 0.53453,0.56899 -0.57523,0.47902 c -0.3164,0.26347 -0.74266,0.48262 -0.94726,0.48701 -0.2046,0.004 -0.4746,0.1013 -0.6,0.21535 -0.4974,0.4524 -2.46684,0.72094 -4.27584,0.58306 -1.87608,-0.14302 -1.88676,-0.14055 -1.71631,0.39652 0.0943,0.29724 0.37687,0.74578 0.62784,0.99675 0.49099,0.49099 0.61262,1.17631 0.20877,1.17631 -0.13612,0 -0.30969,-0.162 -0.38568,-0.36 -0.076,-0.198 -0.23457,-0.36 -0.35246,-0.36 -0.28078,0 -0.27662,0.79942 0.006,1.092 0.46939,0.48648 1.46002,2.6069 1.46002,3.12514 0,0.61279 -0.35472,0.76394 -3.42816,1.46078 -2.453,0.55618 -2.60444,0.96554 -1.03616,2.80121 0.60737,0.71095 1.10432,1.40813 1.10432,1.54932 0,0.3215 1.58704,3.38357 2.01211,3.88214 0.17321,0.20319 0.37872,0.54996 0.45667,0.77067 0.078,0.22068 0.66139,0.6982 1.29648,1.06116 0.63511,0.36295 1.61374,1.02662 2.17474,1.47482 0.8867,0.70841 1.02,0.93734 1.02,1.75197 0,0.5154 -0.27,1.54762 -0.6,2.2938 -0.73251,1.65634 -0.75605,2.36048 -0.0944,2.82389 0.27807,0.19479 0.93545,0.92991 1.46084,1.63363 0.52538,0.70371 1.24286,1.55914 1.59439,1.90095 1.35461,1.31714 2.74469,3.03636 3.57266,4.41852 0.47446,0.792 1.31801,2.142 1.87457,3 0.9355,1.44216 2.28686,3.83961 3.65256,6.48 0.30725,0.594 0.76238,1.404 1.01146,1.8 0.24907,0.396 0.46072,1.01913 0.47037,1.38477 0.019,0.71753 1.07254,2.57523 1.46055,2.57523 0.13034,0 0.237,0.18134 0.237,0.40296 0,0.38901 0.3222,1.53725 0.74556,2.65704 0.11227,0.297 0.35433,0.54 0.53788,0.54 0.18603,0 0.3996,0.34526 0.48255,0.78 0.46805,2.45378 0.68042,3.15602 1.31275,4.34097 0.38412,0.71988 0.77146,1.69815 0.86071,2.17395 0.15463,0.82421 0.2082,0.86508 1.13357,0.86508 1.43681,0 2.00873,0.52351 3.68698,3.375 0.64219,1.09116 3.71834,4.305 4.12056,4.305 0.17568,0 0.31944,0.162 0.31944,0.36 0,0.198 0.108,0.36 0.24,0.36 0.132,0 0.24,0.12595 0.24,0.27986 0,0.15394 0.16881,0.45094 0.37514,0.66 1.30123,1.31856 3.22584,4.41221 3.59592,5.78014 0.23347,0.86299 0.78312,2.15023 1.33219,3.12 1.9333,3.41445 2.02162,3.73188 1.95161,7.01431 -0.0765,3.58567 -0.24473,4.59161 -1.36867,8.18237 -0.63442,2.02682 -1.04619,2.91417 -1.68305,3.62692 -0.77626,0.86873 -0.84314,1.06426 -0.84314,2.46476 0,1.56552 -0.48867,2.70626 -1.75388,4.09418 -0.27201,0.29839 -0.71767,0.90878 -0.99033,1.35643 -0.27269,0.44765 -0.93315,1.39152 -1.4677,2.09746 -0.53453,0.70596 -1.25325,1.76957 -1.59715,2.36357 -0.3439,0.594 -0.91498,1.35 -1.26907,1.68 -0.35407,0.33 -0.78094,0.92728 -0.94858,1.32732 -0.16764,0.40003 -0.65573,1.04803 -1.08465,1.44 -0.42893,0.39196 -1.37139,1.30668 -2.09439,2.03268 -1.19285,1.19784 -1.30236,1.39564 -1.18339,2.13746 0.0721,0.44962 0.3905,1.09762 0.70752,1.44 0.31702,0.34238 1.06418,1.37853 1.66037,2.30253 0.59621,0.924 1.31287,1.88573 1.59261,2.1372 0.7256,0.65223 0.64224,1.38504 -0.21288,1.87164 -0.39516,0.22486 -0.71848,0.57442 -0.71848,0.77679 0,0.20237 -0.38753,0.52985 -0.86117,0.72775 -0.47364,0.1979 -1.25664,0.67097 -1.74,1.0513 -1.19655,0.94142 -2.55423,1.59259 -4.05883,1.94668 l -1.26,0.29652 0.006,1.47605 c 0.003,0.81185 0.11851,1.96207 0.25617,2.55607 0.13767,0.594 0.25481,2.862 0.26033,5.04 0.007,2.79392 0.15362,4.8434 0.49762,6.96 0.59822,3.68086 0.76416,4.9088 1.11892,8.28 0.15279,1.452 0.38206,3.30046 0.50945,4.10768 0.38671,2.4502 0.2827,6.96357 -0.21259,9.22449 -0.6462,2.94982 -2.23426,5.88379 -4.16825,7.70102 -0.55817,0.52448 -1.11348,1.3771 -1.39049,2.13497 -0.47551,1.30092 -0.95524,4.15584 -0.95937,5.70922 -0.003,1.09176 -0.8982,3.01826 -1.89799,4.08408 -0.41348,0.44081 -0.98405,1.25081 -1.26792,1.8 -0.72322,1.39922 -1.83293,6.21662 -2.22646,9.6653 -0.18242,1.59874 -0.49526,3.92074 -0.69521,5.16 -0.19994,1.23929 -0.4133,2.63124 -0.47414,3.09324 -0.0608,0.462 -0.38623,1.596 -0.7231,2.52 -0.36566,1.00303 -0.61742,2.21191 -0.62481,3 -0.0113,1.20495 0.0558,1.37619 0.76982,1.96452 l 0.78216,0.6445 v 2.7155 c 0,2.89018 0.11098,3.31548 0.86508,3.31548 0.2622,0 0.74122,0.26448 1.06447,0.58774 0.57547,0.57547 0.58479,0.6467 0.44729,3.42 l -0.14045,2.83226 0.99967,1.06987 0.99965,1.06985 0.33843,4.69015 c 0.18614,2.57957 0.50083,5.28413 0.69931,6.01013 0.19848,0.726 0.36213,1.66462 0.36369,2.08584 0.002,0.4212 0.0946,0.82255 0.20684,0.89189 0.11217,0.0693 0.27631,1.07472 0.36472,2.23416 0.0884,1.15946 0.2684,2.75611 0.39996,3.54811 0.13157,0.792 0.34224,2.736 0.4682,4.32 0.12592,1.584 0.44592,4.608 0.71104,6.72 0.26513,2.112 0.48432,4.3601 0.48708,4.99577 0.003,0.63569 0.12116,1.3728 0.26312,1.63802 0.29796,0.55675 0.62455,3.12859 0.94048,7.40621 0.22352,3.02633 0.57891,6.67514 0.84238,8.64888 0.13538,1.01417 0.22126,1.41156 0.80179,3.71112 0.13332,0.528 0.36787,1.878 0.52128,3 0.15339,1.122 0.48523,2.49307 0.73743,3.04682 0.25221,0.55378 0.45854,1.23495 0.45854,1.51373 0,0.60418 0.43728,2.56351 0.72298,3.23945 0.71383,1.68895 1.19702,3.38961 1.19702,4.2132 0,0.52533 0.21458,1.95228 0.47686,3.17097 0.87436,4.06282 1.25992,7.8151 0.94238,9.17115 -0.36523,1.55966 -0.51686,1.72785 -2.34542,2.60131 -1.41387,0.67536 -1.55796,0.70121 -1.8307,0.32822 -0.40476,-0.55353 -0.7698,-0.5092 -1.6069,0.19515 -0.39218,0.33 -0.86676,0.6 -1.05463,0.6 -0.81398,0 0.0299,4.16237 1.37659,6.79025 0.38026,0.742 0.52997,1.50638 0.56463,2.88273 0.0259,1.03013 0.14894,1.97477 0.27336,2.09918 0.13596,0.13596 1.21507,0.15473 2.70461,0.047 l 2.47838,-0.17918 0.39062,-1.00088 c 0.21483,-0.55046 0.6199,-1.25246 0.90017,-1.56 1.18426,-1.29945 3.47971,-4.8707 5.06441,-7.87912 0.45194,-0.858 1.1646,-2.16694 1.58369,-2.90875 0.41906,-0.74182 1.38583,-2.46982 2.14838,-3.84 0.76253,-1.37019 1.4929,-2.65325 1.62303,-2.85125 0.13012,-0.198 0.45372,-0.83374 0.71908,-1.41276 0.79707,-1.73916 2.19785,-3.86724 2.54556,-3.86724 0.17926,0 0.3259,-0.23566 0.3259,-0.52366 0,-0.64255 1.72762,-4.90224 2.65654,-6.55005 1.7363,-3.08012 4.06346,-7.62394 4.06346,-7.93402 0,-0.0645 0.3565,-0.62909 0.79224,-1.25474 1.14091,-1.6382 2.38219,-3.89748 5.37195,-9.77753 0.58341,-1.14739 0.80294,-1.5678 1.3787,-2.64 0.14174,-0.264 0.58567,-0.966 0.98647,-1.56 0.4008,-0.594 1.29783,-2.23843 1.99339,-3.65431 0.69557,-1.41588 1.36652,-2.63724 1.49098,-2.71416 0.12444,-0.0769 0.22627,-0.31397 0.22627,-0.5268 0,-0.21281 0.15197,-0.55745 0.33771,-0.76584 0.52687,-0.59112 3.26229,-5.95368 3.26229,-6.39543 0,-0.2662 0.12732,-0.34596 0.39087,-0.24482 0.32316,0.12401 0.3665,0.0281 0.25017,-0.55339 -0.0932,-0.46601 -0.0226,-0.80136 0.20914,-0.9937 0.19241,-0.15967 0.34982,-0.4019 0.34982,-0.53829 0,-0.13637 0.27,-0.60195 0.6,-1.0346 0.33,-0.43264 0.6,-0.94946 0.6,-1.14849 0,-0.19901 0.11801,-0.43476 0.26223,-0.5239 0.22411,-0.1385 1.4058,-2.50908 3.1037,-6.22627 0.24118,-0.528 0.5135,-1.392 0.60518,-1.92 0.0917,-0.528 0.15502,-6.306 0.14079,-12.84 -0.0142,-6.534 0.0772,-13.122 0.20318,-14.64 0.126,-1.518 0.36024,-5.298 0.52054,-8.4 0.17616,-3.40862 0.39293,-5.70833 0.54792,-5.81268 0.17894,-0.12048 0.16728,-0.31661 -0.0386,-0.64891 -0.22853,-0.36876 -0.23815,-1.19633 -0.0427,-3.66732 0.14261,-1.803 0.22371,-8.04552 0.18643,-14.35109 -0.0616,-10.42121 0.10637,-19.45884 0.36956,-19.88472 0.0628,-0.10159 0.17856,-4.8221 0.25728,-10.48999 0.17476,-12.58656 0.28761,-16.34153 0.61168,-20.35392 0.13788,-1.70712 0.2203,-4.77067 0.1831,-6.80793 -0.0626,-3.42941 -0.0331,-3.72927 0.39696,-4.04376 0.4189,-0.30632 0.4272,-0.36915 0.0845,-0.63968 -0.57749,-0.4558 -0.75862,-6.39837 -0.26883,-8.81999 0.23302,-1.15212 0.30672,-2.27511 0.20475,-3.12 -0.2653,-2.19814 -0.2556,-2.84067 0.4097,-27.12 0.1465,-5.346 0.29906,-11.286 0.33905,-13.2 0.04,-1.914 0.17757,-5.37 0.30573,-7.68 0.12816,-2.31 0.34594,-8.358 0.48396,-13.44 0.138,-5.082 0.30108,-11.076 0.3624,-13.32 0.0613,-2.244 0.21538,-4.674 0.34239,-5.4 0.12698,-0.726 0.30753,-4.398 0.40121,-8.16 0.26109,-10.48723 0.28053,-10.96915 0.56128,-13.92 0.14441,-1.518 0.26448,-4.866 0.26681,-7.44 0.002,-2.574 0.12336,-6.732 0.26899,-9.24 0.14561,-2.508 0.24579,-7.01947 0.22263,-10.02547 -0.0233,-3.006 0.0722,-8.892 0.21194,-13.08 0.35148,-10.53331 0.59381,-24.95626 0.53722,-31.97453 -0.0261,-3.234 0.0696,-7.338 0.21252,-9.12 0.14297,-1.782 0.2928,-5.94 0.33297,-9.24 0.0402,-3.3 0.20693,-8.16 0.37054,-10.8 0.16361,-2.64 0.27876,-5.61 0.25586,-6.6 -0.13428,-5.80996 0.0245,-12.9898 0.39797,-18 0.0935,-1.254 0.18655,-4.44 0.20681,-7.08 0.0568,-7.39641 0.28637,-13.91419 0.57007,-16.18238 0.14155,-1.13169 0.2485,-3.02961 0.23763,-4.21761 -0.0108,-1.188 0.10142,-5.184 0.24945,-8.88 0.14806,-3.696 0.31066,-9.852 0.36137,-13.68 0.0507,-3.828 0.21468,-8.742 0.36437,-10.92 0.14969,-2.178 0.32141,-6.012 0.38157,-8.52 0.0602,-2.508 0.21483,-5.88889 0.34368,-7.51308 0.26652,-3.35937 0.30608,-7.30803 0.0843,-8.41692 -0.0974,-0.4872 -0.29301,-0.75 -0.55817,-0.75 -0.22449,0 -0.66998,-0.28051 -0.99,-0.62336 -0.32001,-0.34284 -0.97512,-0.82506 -1.45579,-1.0716 -0.48069,-0.24653 -1.77669,-1.18372 -2.88,-2.08264 -1.10333,-0.89893 -2.60004,-2.02202 -3.32604,-2.49575 -3.60741,-2.35396 -4.305,-2.78187 -5.66719,-3.47642 -0.80875,-0.41237 -1.7815,-0.9567 -2.16163,-1.20962 -0.38016,-0.25292 -0.90718,-0.57455 -1.17118,-0.71474 -0.264,-0.14019 -0.51451,-0.48686 -0.5567,-0.77038 -0.0553,-0.37161 -0.24653,-0.51549 -0.68518,-0.51549 -0.33468,0 -1.08859,-0.324 -1.67534,-0.72 -0.58675,-0.396 -1.12733,-0.72 -1.20127,-0.72 -0.0739,0 -0.85155,-0.51376 -1.72798,-1.14168 -0.87643,-0.62792 -2.13353,-1.40215 -2.79353,-1.7205 -0.66,-0.31836 -1.956,-1.07988 -2.88,-1.69226 -0.924,-0.61239 -2.22,-1.42323 -2.88,-1.80188 -0.66,-0.37864 -1.308,-0.81821 -1.44,-0.97682 -0.132,-0.15861 -0.888,-0.7032 -1.68,-1.21019 -2.13226,-1.36496 -2.1281,-1.3622 -3.14206,-2.08872 -1.6768,-1.20146 -2.75215,-1.84745 -3.07555,-1.84745 -0.17433,0 -0.57453,-0.19622 -0.88932,-0.43605 -0.31481,-0.23983 -1.49037,-0.95536 -2.61237,-1.59006 -1.122,-0.63471 -2.256,-1.34479 -2.52,-1.57796 -0.264,-0.23316 -1.506,-0.93846 -2.76,-1.56733 -1.254,-0.62886 -2.57775,-1.35044 -2.94166,-1.60351 -0.60598,-0.42141 -5.38322,-2.93841 -8.57834,-4.51968 -0.726,-0.3593 -2.022,-1.06061 -2.88,-1.55846 -0.858,-0.49785 -2.856,-1.5664 -4.44,-2.37455 -1.584,-0.80815 -3.35576,-1.78955 -3.93725,-2.18088 -1.80749,-1.2164 -5.69249,-3.26266 -10.10275,-5.32118 -0.99,-0.46209 -2.07,-0.97702 -2.4,-1.1443 -0.33,-0.16727 -1.02776,-0.44195 -1.55057,-0.61038 -0.52279,-0.16844 -1.45649,-0.56037 -2.07485,-0.87096 -0.61836,-0.31058 -1.44554,-0.5647 -1.83818,-0.5647 -0.39262,0 -1.35281,-0.20411 -2.13373,-0.45358 -1.0055,-0.32122 -2.29284,-0.47306 -4.41126,-0.5203 -3.40541,-0.0759 -3.71875,0.0153 -6.02501,1.75388 -0.48151,0.363 -1.03437,0.66 -1.22856,0.66 -0.67742,0 -1.65626,1.03168 -2.36296,2.4905 -1.38401,2.857 -1.73748,4.90198 -1.05653,6.11247 0.19711,0.35037 0.46613,0.93849 0.59784,1.30695 0.13171,0.36846 0.55855,0.85304 0.94853,1.07685 0.38997,0.22382 0.75674,0.58935 0.81504,0.8123 0.25514,0.97565 4.13152,2.15935 4.59825,1.40414 0.0805,-0.13023 0.87677,-0.45865 1.7695,-0.72981 1.4363,-0.43626 1.65593,-0.58364 1.90783,-1.28025 0.15658,-0.43297 0.28466,-0.97236 0.28466,-1.19863 0,-0.22627 0.17444,-0.6776 0.3876,-1.00296 0.516,-0.78751 1.51082,-0.78093 2.25849,0.0149 0.5557,0.59152 0.56292,0.6534 0.29251,2.50862 -0.4974,3.41264 -1.10839,4.09739 -4.71412,5.28322 -1.3007,0.42776 -1.9728,0.51483 -3.13584,0.40622 -1.8886,-0.17636 -4.11033,-1.00497 -4.77321,-1.7802 -0.28349,-0.33153 -0.94743,-1.06665 -1.47543,-1.63361 -0.528,-0.56695 -1.60089,-2.26726 -2.3842,-3.77848 l -1.42421,-2.74765 0.29899,-1.67302 c 0.16442,-0.92015 0.4295,-2.04169 0.58903,-2.4923 0.38592,-1.09004 2.00542,-3.93829 2.44827,-4.30582 0.19368,-0.16073 0.35407,-0.41401 0.35644,-0.56285 0.005,-0.29345 1.19585,-1.31147 2.81568,-2.40641 1.47389,-0.99629 1.32125,-1.20544 -0.72,-0.98652 -0.957,0.10263 -4.19853,0.21827 -7.20338,0.25697 -3.00487,0.0387 -5.81287,0.17709 -6.24,0.30754 -0.42715,0.13044 -1.45222,0.30575 -2.27796,0.38956 -1.43047,0.14519 -1.51176,0.12503 -1.72162,-0.42695 -0.12115,-0.31863 -0.36477,-0.63479 -0.54136,-0.70256 -0.17662,-0.0678 -0.5798,-0.6495 -0.89595,-1.29273 -0.31615,-0.64323 -0.75319,-1.43951 -0.97121,-1.76951 -0.21799,-0.33 -0.69568,-1.356 -1.06152,-2.28 -0.36585,-0.924 -0.78504,-1.896 -0.93151,-2.16 -0.14649,-0.264 -0.49961,-0.912 -0.78468,-1.44 -0.28509,-0.528 -0.80465,-1.38007 -1.15457,-1.89349 -0.34994,-0.51342 -0.63624,-1.10244 -0.63624,-1.30893 0,-0.2065 -0.4752,-1.35243 -1.05597,-2.54651 -1.11168,-2.28558 -1.92951,-4.09715 -2.65947,-5.89107 -0.2417,-0.594 -0.67917,-1.62 -0.97214,-2.28 -0.29297,-0.66 -0.88474,-2.172 -1.31503,-3.36 -0.4303,-1.188 -1.31899,-3.294 -1.97484,-4.68 -0.65585,-1.386 -1.41387,-3.006 -1.68447,-3.6 -0.27062,-0.594 -0.62548,-1.242 -0.78864,-1.44 -0.35244,-0.42775 -1.03773,-2.12316 -1.79469,-4.44 -0.89763,-2.74735 -1.87366,-5.10823 -2.50843,-6.06743 -0.32775,-0.49524 -0.66665,-1.27667 -0.75315,-1.73651 -0.0865,-0.45984 -0.51741,-1.62684 -0.9576,-2.59335 -0.44016,-0.9665 -0.87057,-2.1545 -0.95647,-2.64 -0.15379,-0.86942 -1.20682,-3.59186 -1.90481,-4.92466 -0.19644,-0.37506 -0.62186,-1.47052 -0.94541,-2.43435 -0.32354,-0.96382 -0.796,-2.12226 -1.04988,-2.57429 -0.25389,-0.45204 -0.5406,-1.181356 -0.63708,-1.620696 -0.0965,-0.439353 -0.48732,-1.458048 -0.86849,-2.263771 -0.38119,-0.805721 -0.69314,-1.682878 -0.69324,-1.949237 -9e-5,-0.266356 -0.28886,-0.90911 -0.64168,-1.42834 -0.47098,-0.693094 -0.64817,-1.266149 -0.66653,-2.155712 -0.019,-0.912794 -0.27502,-1.709431 -1.03851,-3.22973 -0.5574,-1.109937 -1.01347,-2.299481 -1.01347,-2.643429 0,-0.343949 -0.8105,-2.189818 -1.80113,-4.101929 -0.99062,-1.912114 -1.86763,-3.63857 -1.94892,-3.83657 -0.15343,-0.373738 -0.55644,-1.289523 -1.6234,-3.689002 -0.3446,-0.774952 -0.62655,-1.56828 -0.62655,-1.762951 0,-0.194673 -0.20215,-0.640622 -0.44923,-0.990998 -0.24706,-0.350376 -0.74731,-1.231049 -1.11168,-1.957049 -0.36437,-0.726 -0.97222,-1.674758 -1.35079,-2.108352 -0.73452,-0.841281 -0.92758,-2.116361 -0.4003,-2.643648 0.1584,-0.1584 0.84533,-0.288 1.52652,-0.288 1.40518,0 2.20704,-0.446078 4.47238,-2.487943 2.63297,-2.373259 3.58829,-3.159439 4.9452,-4.069677 0.75235,-0.504689 1.7999,-1.320869 2.3279,-1.813728 0.528,-0.492859 1.49043,-1.316434 2.13872,-1.830166 0.64828,-0.513732 1.40428,-1.130613 1.68,-1.370846 1.40352,-1.222925 2.80377,-2.368402 4.10128,-3.355061 0.792,-0.602256 1.98,-1.603958 2.64,-2.226002 0.66,-0.622046 1.67357,-1.460206 2.25236,-1.86258 0.5788,-0.402374 1.8748,-1.485451 2.88,-2.40684 1.00521,-0.921389 2.25964,-1.956909 2.78764,-2.301156 0.528,-0.344244 1.51668,-1.060173 2.19706,-1.59095 0.6804,-0.530777 2.00335,-1.50085 2.93993,-2.155716 0.93655,-0.654866 1.75917,-1.368218 1.82805,-1.585229 0.12552,-0.395438 3.12908,-3.242517 5.15496,-4.8864 0.594,-0.481994 1.566,-1.298049 2.16,-1.813461 0.594,-0.51541 1.47531,-1.240214 1.95843,-1.610676 1.43109,-1.097335 1.58177,-1.538736 1.74554,-5.113567 0.15701,-3.427097 -0.12626,-10.382099 -0.45269,-11.114317 -0.14683,-0.32934 -0.0728,-0.46592 0.30636,-0.565069 0.27502,-0.07191 0.66886,-0.3884602 0.87526,-0.7034382 0.37068,-0.565749 0.40963,-0.570837 3.21511,-0.419987 1.56195,0.08398 4.8811,0.02225 7.37595,-0.137178 2.49482,-0.159432 5.72404,-0.325461 7.17604,-0.368955 1.452,-0.04349 3.8932,-0.160447 5.42488,-0.259898 3.015,-0.195763 4.05512,-0.06675 4.05512,0.502976 0,0.200744 0.22569,0.807406 0.50157,1.3481372 0.36924,0.723786 0.47223,1.275261 0.39034,2.090439 -0.13812,1.375256 0.48933,10.643162 0.79802,11.78729 0.16978,0.629256 0.83518,1.381913 2.65222,3 1.33409,1.188 3.12561,2.835 3.98119,3.66 0.85555,0.825 1.65451,1.5 1.77542,1.5 0.12092,0 0.62516,0.355941 1.12054,0.790979 0.88517,0.777341 1.37302,1.133086 3.19394,2.32902 3.24653,2.132254 6.44134,4.360193 6.70095,4.672997 0.16752,0.201852 0.39881,0.367003 0.51398,0.367003 0.11518,0 0.88495,0.55165 1.71063,1.225889 0.82564,0.674237 2.0412,1.647125 2.7012,2.161973 0.66,0.514845 1.31479,1.028587 1.45512,1.141646 0.1403,0.113059 0.5183,0.34158 0.84,0.507826 0.32167,0.166243 0.8357,0.612852 1.14228,0.992464 0.30655,0.379611 0.69273,0.690202 0.85816,0.690202 0.16541,0 0.55443,0.27 0.86444,0.6 0.31,0.33 0.66153,0.6 0.78115,0.6 0.25663,0 2.83094,1.666893 3.17885,2.058333 0.132,0.14852 0.645,0.568973 1.14,0.934337 0.495,0.365367 0.9,0.764662 0.9,0.887326 0,0.122666 0.297,0.484435 0.66,0.80393 0.66984,0.589563 1.5,0.789475 1.5,0.361219 0,-0.142867 0.235,-0.127778 0.6,0.03852 0.33,0.15036 0.6,0.349216 0.6,0.441909 0,0.09269 0.729,0.522012 1.62,0.954043 0.891,0.432034 1.99351,1.067861 2.45004,1.412948 0.93028,0.703197 2.08632,1.437475 3.43963,2.184751 0.50033,0.276266 1.00814,0.76132 1.1285,1.0779 0.12036,0.316576 0.41302,0.678393 0.65033,0.804036 0.61675,0.326517 9.72962,0.438324 14.8915,0.182702 l 4.38,-0.216902 V 60.7811 c 0,0.284611 0.108,0.517473 0.24,0.517473 0.132,0 0.24,-0.267115 0.24,-0.593587 v -0.593587 l 3.54,0.17111 c 4.08513,0.19746 6.7781,0.139863 8.82,-0.18864 2.0993,-0.337737 4.38057,-0.287018 5.99417,0.13327 0.77827,0.202711 1.55361,0.315382 1.723,0.25038 0.33598,-0.128933 1.0136,0.18006 2.12621,0.969566 0.39413,0.279684 0.97155,0.587751 1.28314,0.684596 0.31159,0.09684 0.98659,0.55558 1.5,1.019414 0.8646,0.781114 0.93348,0.938657 0.93348,2.135405 0,0.959493 -0.12005,1.412119 -0.46637,1.758453 -0.25651,0.256507 -0.61956,0.931507 -0.80676,1.5 -0.27382,0.831461 -0.68719,1.301587 -2.11363,2.403708 -0.97529,0.753547 -1.89543,1.374547 -2.04475,1.38 -0.14933,0.0054 -0.54305,0.360912 -0.8749,0.789912 -0.33187,0.429 -2.07269,2.283223 -3.86849,4.120497 -1.7958,1.837275 -3.26676,3.457275 -3.2688,3.6 -0.002,0.142726 -0.51504,0.822766 -1.14,1.511196 -0.62496,0.688433 -1.5683,1.866497 -2.0963,2.61792 -0.528,0.751423 -1.23677,1.70016 -1.57505,2.108306 -0.33826,0.408144 -0.89422,1.22808 -1.23542,1.82208 -0.34124,0.594 -1.39157,2.043639 -2.33408,3.221419 -2.00239,2.502224 -3.85545,5.230001 -3.85545,5.675388 0,0.171742 -0.20386,0.535217 -0.453,0.807725 -0.48214,0.527359 -3.14839,5.074846 -3.14496,5.363956 0,0.0943 -0.53904,1.25151 -1.20034,2.57151 -1.69677,3.38685 -3.35714,7.89181 -3.36761,9.13704 -0.003,0.38663 -0.22276,1.35096 -0.48784,2.14296 -0.26508,0.792 -0.58534,2.358 -0.71168,3.48001 -0.12636,1.122 -0.44561,3.228 -0.70946,4.68 -0.67327,3.70499 -0.68935,10.44384 -0.0299,12.50036 0.25039,0.7808 0.63209,2.14325 0.84821,3.02767 0.53091,2.17263 1.24063,3.71091 1.77687,3.85113 0.24955,0.0653 0.88646,0.94205 1.45888,2.00833 0.5588,1.04088 1.31434,2.12945 1.67897,2.41905 0.36463,0.28959 1.17259,1.00793 1.79549,1.5963 0.62287,0.58838 1.47763,1.21151 1.89943,1.38476 0.4218,0.17324 1.13297,0.5619 1.58038,0.86369 0.44743,0.30179 1.11105,0.54871 1.47473,0.54871 0.36367,0 1.4016,0.22993 2.30652,0.51095 1.42058,0.44118 2.00988,0.49176 4.31529,0.37041 3.13971,-0.16527 3.87915,-0.44301 6.08998,-2.28753 2.00714,-1.67456 2.66486,-2.77502 2.82098,-4.7199 0.19215,-2.39376 -0.28843,-4.38621 -1.33853,-5.54937 -0.84259,-0.93332 -1.33771,-1.17769 -3.53376,-1.74412 -1.59595,-0.41165 -4.76438,0.055 -5.83641,0.85952 -1.07597,0.80754 -1.22398,1.01424 -1.22861,1.71605 -0.006,0.89483 -1.14804,2.20399 -1.92276,2.20399 -0.9995,0 -1.26432,-0.48899 -1.07695,-1.98867 0.12593,-1.00787 0.34241,-1.49132 0.97886,-2.18605 0.44945,-0.4906 0.81718,-0.99018 0.81718,-1.11019 0,-0.12001 0.23165,-0.34218 0.5148,-0.49371 0.28313,-0.15153 0.74213,-0.53735 1.02,-0.85738 1.16558,-1.34248 7.32597,-1.28774 9.89942,0.088 1.1214,0.59948 2.72578,2.34386 2.72578,2.96364 0,0.22505 0.27,0.58611 0.6,0.80233 0.33,0.21622 0.6,0.55264 0.6,0.7476 0,0.61176 0.95174,0.40743 1.20501,-0.25871 0.12821,-0.33725 0.73906,-1.06625 1.35744,-1.62 1.55014,-1.38813 2.93081,-2.79472 5.59755,-5.70264 3.10682,-3.3878 3.81288,-4.06419 4.24243,-4.06419 0.20256,0 0.6924,-0.27273 1.08854,-0.60606 1.14864,-0.96652 2.53491,-0.57262 4.61276,1.31069 2.42109,2.19444 5.99596,5.77789 6.9173,6.93393 0.56042,0.7032 1.20797,1.50273 1.43897,1.77672 0.231,0.27399 0.42,0.58965 0.42,0.70145 0,0.1118 0.19927,0.20327 0.4428,0.20327 1.69661,0 2.37053,3.93508 1.68518,9.84 -0.14556,1.254 -0.23988,4.224 -0.20964,6.6 0.0302,2.376 0.0283,5.184 -0.004,6.24 -0.10413,3.37329 -0.0974,4.60255 0.0823,15.09314 0.097,5.66123 0.24447,10.40339 0.32775,10.53814 0.0833,0.13475 0.16538,1.71283 0.18245,3.50686 0.0252,2.64449 -0.0533,3.48737 -0.41453,4.45332 -0.37695,1.00802 -0.40287,1.34395 -0.16827,2.18182 0.20868,0.74532 0.21087,2.30648 0.009,6.30956 -0.1667,3.30403 -0.18386,5.47794 -0.0453,5.73818 0.19046,0.35763 0.49361,8.97921 0.5717,16.25898 0.0293,2.73315 -0.1968,8.41889 -0.544,13.68 -0.18495,2.80207 -0.19308,4.41578 -0.026,5.15206 0.16574,0.73029 0.16466,1.1668 -0.003,1.36929 -0.47182,0.56851 -0.72953,5.2837 -0.69298,12.67865 0.0202,4.092 0.0263,9.70879 0.0137,12.48175 -0.0127,2.77296 0.0871,6.98496 0.22195,9.36 0.30209,5.32138 0.41381,36.53722 0.19282,53.87825 -0.11359,8.91403 -0.0833,13.31697 0.0992,14.4 0.14455,0.858 0.26073,1.884 0.25816,2.28 -0.003,0.396 -0.0797,7.956 -0.17143,16.8 -0.1865,17.98163 -0.18432,16.42065 -0.0365,26.03999 0.0599,3.894 0.18057,12.01992 0.26827,18.05763 l 0.15943,10.97762 0.56863,0.44729 c 0.44105,0.3469 1.12882,0.47587 3.06492,0.57468 1.37297,0.0701 2.74316,0.25951 3.04486,0.42098 0.36936,0.19769 1.06702,0.24279 2.13595,0.13808 2.60724,-0.25541 14.37903,-0.17904 14.89411,0.0966 0.25397,0.13591 0.99509,0.2471 1.64696,0.2471 1.0914,0 1.26148,0.0828 2.14879,1.04537 0.52999,0.57497 1.08984,1.28129 1.24416,1.5696 0.44196,0.82582 0.62251,6.88519 0.25147,8.43927 -0.43394,1.81756 -1.35307,3.2417 -3.35808,5.20322 -1.04808,1.02533 -1.69001,1.35837 -3.36,1.74319 -2.80944,0.6474 -4.58906,1.46342 -5.73739,2.63081 -1.72618,1.75483 -2.90261,3.28824 -2.90261,3.78343 0,0.24936 -0.15857,0.663 -0.35237,0.91925 -0.1938,0.25622 -0.3558,0.80815 -0.36,1.22647 -0.0113,1.11115 -0.6882,3.57893 -1.26115,4.59672 -1.06433,1.89074 -1.7909,2.79211 -3.24504,4.02574 -1.23886,1.051 -1.72584,1.31016 -2.70607,1.44021 -0.65746,0.0872 -1.19537,0.24427 -1.19537,0.34903 0,0.10476 -0.351,0.30632 -0.78,0.44792 l -0.78,0.25747 -0.12,5.46115 c -0.066,3.00362 -0.0674,7.02715 -0.003,8.94115 0.12965,3.85548 0.11604,6.40877 -0.1062,19.92 -0.20134,12.23878 -0.19695,10.98017 -0.0978,28.00056 l 0.087,14.92056 -0.58183,0.61944 c -0.32001,0.3407 -0.45917,0.61944 -0.30926,0.61944 0.63009,0 0.83822,1.95002 0.5123,4.8 -0.19879,1.73849 -0.3312,6.22428 -0.35769,12.12 -0.0233,5.148 -0.1782,12.384 -0.34457,16.08 -0.16637,3.696 -0.35328,9.312 -0.41539,12.48 -0.0621,3.168 -0.12881,6.408 -0.14823,7.2 l -0.0353,1.44 2.79404,0.26008 c 1.53669,0.14307 5.53387,0.2822 8.88259,0.30917 9.43666,0.076 13.0902,0.49097 14.13734,1.6056 0.48864,0.52015 0.57773,0.95208 0.77674,3.76635 0.23866,3.37497 -0.004,6.10608 -0.68789,7.74292 -0.19375,0.46366 -1.2642,1.73468 -2.37878,2.82447 -1.59965,1.56403 -2.26855,2.05039 -3.1753,2.30873 -1.84145,0.52459 -3.58111,1.78603 -3.92129,2.84328 -0.15914,0.49466 -0.43048,1.1694 -0.603,1.4994 -0.17251,0.33 -0.50193,1.23552 -0.73207,2.01228 -0.23011,0.77673 -0.72302,1.7458 -1.09538,2.15347 -0.37234,0.40766 -0.67975,0.85214 -0.68314,0.98774 -0.003,0.13558 -0.38059,0.83427 -0.83827,1.55263 -0.90859,1.42616 -2.7607,3.00869 -4.58844,3.9206 -1.30142,0.64929 -3.78826,1.19649 -4.53058,0.99688 -0.26587,-0.0715 -0.75187,-0.0307 -1.08,0.0907 l -0.59657,0.22068 -0.0418,15.45251 c -0.023,8.49888 0.057,16.31652 0.17777,17.37252 0.36118,3.15872 0.36039,10.7034 0,11.3754 -0.23328,0.43352 -0.24732,0.78857 -0.057,1.44 0.37752,1.29212 0.24304,17.27064 -0.31328,37.2246 -0.19106,6.85267 -0.1817,27.32635 0.0132,28.93939 0.0811,0.67066 0.0356,2.02066 -0.10089,3 -0.13654,0.97935 -0.17369,2.26661 -0.0826,2.86061 l 0.16568,1.08 3.36,0.24007 c 3.43965,0.24576 4.68713,0.60691 5.01091,1.45068 0.082,0.21367 0.14909,1.33925 0.14909,2.50128 0,2.00539 0.0314,2.13334 0.61824,2.51784 0.46579,0.30521 1.07239,0.39286 2.46,0.35544 1.01297,-0.0273 3.24576,0.0579 4.96176,0.18948 1.716,0.13155 3.50784,0.1902 3.98189,0.13037 0.51129,-0.0645 1.61904,0.11974 2.72335,0.45302 1.48416,0.44794 1.92972,0.69317 2.19811,1.20989 0.40114,0.77225 0.44436,3.50607 0.0821,5.19504 -0.2478,1.15546 -0.28099,1.19069 -1.26,1.33668 -5.90451,0.88047 -9.90312,1.10657 -10.42049,0.5892 z M 445.55624,752.79892 c 0.54036,-1.64263 1.41418,-2.72657 2.54438,-3.15629 0.33204,-0.12624 1.72392,-0.35695 3.09308,-0.51271 1.82116,-0.20717 2.62231,-0.405 2.9848,-0.73709 0.34676,-0.31768 0.85292,-0.45391 1.68658,-0.45391 0.65513,0 1.41091,-0.15393 1.6795,-0.34207 0.26859,-0.18814 1.10192,-0.55771 1.85183,-0.82128 0.7499,-0.26357 1.52505,-0.6408 1.72255,-0.83832 0.19752,-0.1975 0.69845,-0.43363 1.11317,-0.52471 0.84173,-0.1849 3.33089,-2.48016 3.33089,-3.07145 0,-0.45206 -0.36708,-0.5657 -2.52,-0.78017 -0.92401,-0.092 -2.51965,-0.4871 -3.54586,-0.87792 -2.0793,-0.79185 -2.68538,-1.48783 -2.42582,-2.78563 0.0787,-0.3935 0.0161,-1.10014 -0.139,-1.57025 -0.23708,-0.71832 -0.20309,-1.14283 0.21288,-2.65901 0.27223,-0.99232 0.64996,-2.76252 0.83939,-3.93376 0.18943,-1.17123 0.50234,-2.50745 0.69535,-2.96938 0.87288,-2.0891 0.55152,-14.59368 -0.51055,-19.86605 -0.14626,-0.726 -0.32811,-3.318 -0.40411,-5.76 -0.19483,-6.25826 -0.37948,-9.20169 -0.59479,-9.48 -0.10209,-0.132 -0.3174,-0.834 -0.47841,-1.56 -0.16104,-0.726 -0.38648,-1.698 -0.50098,-2.16 -0.1145,-0.462 -0.42883,-1.974 -0.6985,-3.36 -0.26968,-1.386 -0.86757,-4.194 -1.32866,-6.24 -0.46109,-2.046 -0.83892,-3.855 -0.83964,-4.02 0,-0.165 0.2147,-0.3 0.4787,-0.3 0.264,0 0.48,-0.108 0.48,-0.24 0,-0.132 -0.20872,-0.24 -0.46382,-0.24 -0.27655,0 -0.52442,-0.21804 -0.6139,-0.54 -0.0826,-0.297 -0.29644,-0.918 -0.47532,-1.38 -0.17887,-0.462 -0.45664,-1.353 -0.61728,-1.98 -0.16063,-0.627 -0.38229,-1.14 -0.49257,-1.14 -0.28121,0 -0.0694,18.05672 0.24773,21.12 0.14349,1.386 0.20092,2.952 0.12765,3.48 -0.0733,0.528 0.047,2.094 0.26724,3.48 0.59314,3.73243 0.71429,8.82819 0.26249,11.04 -0.57583,2.81885 -0.88176,5.15779 -0.8874,6.78447 -0.003,0.82255 -0.21934,2.46417 -0.48103,3.64804 -0.2617,1.1839 -0.41443,2.4799 -0.33939,2.88 0.1387,0.73944 -0.15696,7.01808 -0.62755,13.32749 -0.31896,4.27596 -0.86345,5.78909 -2.29905,6.38892 -0.83492,0.34887 -3.09132,0.86045 -5.21696,1.18284 l -0.92913,0.14093 0.16574,1.48366 c 0.11815,1.05784 0.32487,1.65585 0.72019,2.08365 0.30495,0.33 0.851,1.07825 1.21344,1.66279 0.62871,1.014 0.65376,1.17089 0.54562,3.41669 -0.0623,1.29463 -0.0578,2.40938 0.0101,2.47721 0.28349,0.28349 1.02857,0.0923 1.15654,-0.29669 z m 91.98976,-2.28545 c 1.37667,-0.69 2.58298,-1.41655 2.68071,-1.61455 0.24859,-0.50361 0.82939,-14.81844 0.75465,-18.6 -0.097,-4.91114 -0.25137,-6.12 -0.78127,-6.12 -0.24461,0 -0.51329,0.216 -0.59707,0.48 -0.0838,0.264 -0.25308,0.48 -0.37618,0.48 -0.12309,0 -0.22382,0.29947 -0.22382,0.66547 0,0.366 -0.39324,1.257 -0.87387,1.98 -0.48062,0.723 -1.13508,1.85453 -1.45432,2.51453 -0.31925,0.66 -0.7884,1.524 -1.04256,1.92 -0.25416,0.396 -0.57872,0.98837 -0.72118,1.3164 -0.65143,1.49962 -1.08034,2.29594 -1.4201,2.63657 -0.2024,0.20287 -1.0009,1.63747 -1.77449,3.18797 -0.77359,1.55047 -1.50259,2.81906 -1.62,2.81906 -0.11741,0 -0.21348,0.11443 -0.21348,0.25431 0,0.47064 -1.88283,4.17108 -2.9845,5.86569 -1.22229,1.88011 -1.05497,2.27902 0.50995,1.21563 0.49829,-0.3386 1.09054,-0.61563 1.31609,-0.61563 0.22558,0 0.46558,-0.0897 0.53333,-0.19934 0.0678,-0.10963 0.85714,-0.4999 1.75416,-0.86729 0.89702,-0.36737 1.97129,-0.81768 2.38723,-1.00066 0.41597,-0.183 0.87939,-0.33271 1.02984,-0.33271 0.15046,0 0.90555,-0.32889 1.67794,-0.73089 2.25715,-1.17473 3.87506,-1.18352 3.50546,-0.019 -0.089,0.28046 -0.26486,0.50995 -0.39077,0.50995 -0.1259,0 -0.84763,0.60468 -1.60382,1.34373 -0.75622,0.73906 -1.71864,1.61033 -2.13876,1.93616 -0.4201,0.32584 -1.04659,0.96316 -1.39222,1.41626 l -0.62836,0.82385 0.79221,-0.006 c 0.46726,-0.003 1.81891,-0.52006 3.2952,-1.26 z m -372.96189,0.68947 c 0.6789,-0.60201 4.96567,-2.78402 5.46947,-2.78402 0.26986,0 0.62678,0.16402 0.79316,0.36451 0.24662,0.29715 0.22988,0.44475 -0.0906,0.79889 -0.21622,0.23892 -0.39312,0.72288 -0.39312,1.07549 v 0.64111 h 3.49601 c 3.4158,0 3.51629,-0.0149 4.38,-0.64558 1.16385,-0.84996 2.62705,-2.39695 2.80883,-2.96968 0.17755,-0.55942 1.73387,-2.20661 2.44395,-2.58663 0.81659,-0.43701 1.27121,-0.34212 1.27121,0.26537 0,0.55467 -2.23514,3.53652 -2.6509,3.53652 -0.12601,0 -0.2291,0.216 -0.2291,0.48 0,0.72926 0.54103,0.58459 2.20461,-0.58953 3.04233,-2.14724 4.68797,-3.23962 5.13661,-3.40973 0.25233,-0.0957 1.10678,-0.58395 1.89878,-1.08507 2.06507,-1.3066 4.00555,-1.18008 2.52,0.16433 -0.264,0.23892 -0.48,0.61692 -0.48,0.84 0,0.22308 -0.216,0.60108 -0.48,0.84 -0.264,0.23892 -0.48,0.62729 -0.48,0.86304 0,0.23575 -0.108,0.49539 -0.24,0.57696 -0.132,0.0816 -0.24,0.30396 -0.24,0.49416 0,0.59691 0.87568,0.37834 1.89452,-0.47287 0.53896,-0.45029 1.38618,-1.06183 1.8827,-1.359 0.86506,-0.5177 1.33515,-0.96156 2.61133,-2.46569 0.39693,-0.46781 0.88135,-0.72384 1.53564,-0.81161 1.10787,-0.14858 1.19595,0.0756 0.41581,1.0585 -0.66398,0.8365 -0.96671,1.31878 -1.73786,2.76854 -1.36766,2.57117 -0.31388,2.8764 1.89189,0.54797 0.8128,-0.858 1.63716,-1.56 1.83189,-1.56 0.19475,3e-5 0.67808,-0.38501 1.07408,-0.8556 0.55286,-0.657 0.95576,-0.88706 1.73563,-0.99103 1.43845,-0.19176 1.64333,0.4159 0.49492,1.46798 -0.76543,0.70124 -1.41571,2.35349 -1.06449,2.70471 0.0644,0.0644 1.12856,-0.89167 2.3649,-2.12453 2.50941,-2.50231 3.22125,-2.97583 4.13054,-2.74762 0.77358,0.19416 0.79146,0.69327 0.0454,1.26608 -0.67076,0.51496 -1.1318,2.33668 -0.55688,2.20044 0.42478,-0.10066 2.43891,-1.73825 3.44243,-2.79888 0.5769,-0.60972 0.91763,-0.77991 1.44152,-0.72 0.73691,0.0843 0.78397,0.31375 0.42695,2.08178 l -0.16222,0.8033 1.57495,-0.83577 c 0.86621,-0.45967 1.87901,-1.04782 2.25066,-1.30697 0.57748,-0.40267 1.47359,-0.8513 4.5399,-2.27292 0.78535,-0.3641 1.65582,-0.15079 1.65582,0.40574 0,0.28856 -0.18947,0.51008 -0.48,0.56122 -0.264,0.0465 -2.127,1.07222 -4.14,2.27942 -2.656,1.59281 -3.66,2.31941 -3.66,2.64879 0,0.37226 0.12447,0.42897 0.69235,0.31538 0.38079,-0.0761 1.09786,-0.41364 1.59349,-0.75 1.11258,-0.75501 2.26535,-0.81703 2.44462,-0.13152 0.14912,0.57024 0.78032,0.61608 1.83327,0.13313 0.95813,-0.43946 3.40476,-0.88085 3.87735,-0.6995 0.51171,0.19636 0.44367,0.80522 -0.16203,1.44996 -0.28652,0.30499 -0.45777,0.61768 -0.38056,0.69492 0.21666,0.21664 1.15726,-0.35151 2.28335,-1.37921 2.20877,-2.01581 4.29374,-1.80192 2.55682,0.26229 -0.72539,0.86208 -0.48513,0.93214 0.83565,0.24372 1.31048,-0.68306 2.99271,-0.57748 3.10238,0.19469 0.0934,0.65789 0.91686,0.71856 2.44331,0.18 0.56119,-0.198 1.43388,-0.36 1.93929,-0.36 0.86928,0 0.92794,-0.0479 1.08514,-0.88584 0.10058,-0.53618 0.0491,-1.17564 -0.1303,-1.62 -0.51468,-1.27447 -0.74496,-2.52566 -0.58912,-3.20124 0.38913,-1.68715 1.08388,-3.47287 2.10278,-5.4047 1.21526,-2.30417 1.29581,-2.71702 0.73985,-3.79212 -0.42089,-0.81389 -0.27991,-1.5943 0.38585,-2.1361 0.40891,-0.33276 0.42782,-0.61053 0.25003,-3.67243 -0.10582,-1.82182 -0.28937,-3.4062 -0.40795,-3.52082 -0.19707,-0.19052 -2.42069,-1.05346 -3.57557,-1.38759 -0.77127,-0.22315 -2.29056,-1.2474 -2.44421,-1.64779 -0.13516,-0.35227 0.37966,-2.28734 1.014,-3.81137 0.16481,-0.396 0.40769,-0.99 0.53969,-1.32 0.21965,-0.54907 1.34237,-2.84496 2.11601,-4.32708 0.45326,-0.86837 1.69264,-6.38954 1.88404,-8.39292 0.23945,-2.50644 0.92484,-5.782 1.68156,-8.03623 0.3349,-0.99763 0.60891,-1.94717 0.60891,-2.1101 0,-0.35511 -1.34916,-0.86131 -3,-1.1256 -1.21805,-0.19498 -4.22129,-1.04455 -4.66757,-1.32039 -0.45968,-0.28408 -1.90251,0.15994 -3.16711,0.97467 -0.69528,0.44793 -1.60886,0.87912 -2.03017,0.95815 -0.98538,0.18485 -2.46906,-0.4691 -4.05075,-1.78546 -1.28505,-1.06948 -2.09418,-1.24159 -2.8065,-0.59695 -0.39023,0.35316 -0.59554,0.36334 -1.81889,0.09 -3.26507,-0.72941 -3.10933,-0.64959 -3.55751,-1.82316 -0.37208,-0.97428 -0.38462,-1.35137 -0.12157,-3.65564 0.16133,-1.41312 0.3494,-3.0695 0.41793,-3.68083 0.10828,-0.96578 0.0519,-1.16244 -0.43002,-1.5 -0.30506,-0.21367 -0.75932,-0.38849 -1.00948,-0.38849 -0.55875,0 -2.09913,1.5103 -2.66803,2.61593 -0.41607,0.80866 -5.06051,5.54407 -5.43753,5.54407 -0.10786,0 -0.55086,0.30852 -0.98445,0.68564 -0.43359,0.37708 -1.07545,0.83608 -1.42635,1.02 -0.3509,0.18388 -1.2771,0.92836 -2.05821,1.65436 -1.61177,1.49806 -2.06583,1.85319 -4.74379,3.71012 -1.88856,1.30956 -4.02673,3.1384 -4.22101,3.61036 -0.2758,0.67001 -3.1925,2.89207 -8.49899,6.47489 -1.848,1.24774 -3.82142,2.58691 -4.38538,2.97598 -0.56395,0.38904 -1.6264,0.8964 -2.36099,1.12747 -0.73459,0.23105 -1.63159,0.69933 -1.99333,1.04064 -0.81051,0.76471 -3.46355,2.42054 -3.87828,2.42054 -0.16733,0 -0.47473,0.14791 -0.68313,0.32868 -0.39151,0.33965 -4.47769,2.53642 -7.21889,3.88097 -3.88021,1.90325 -6.21523,2.99035 -6.42299,2.99035 -0.27304,0 -2.48519,1.15143 -2.80501,1.46002 -0.1254,0.12098 -0.40567,0.21998 -0.62281,0.21998 -0.21714,0 -0.58474,0.20988 -0.81688,0.46639 -0.23215,0.25652 -0.76189,0.54096 -1.1772,0.63207 -0.41531,0.0911 -2.15911,0.72506 -3.87511,1.40877 -1.71601,0.68372 -3.74604,1.38972 -4.51119,1.56896 -0.76515,0.1792 -1.44652,0.41539 -1.51416,0.52483 -0.0676,0.10944 -0.36258,0.19898 -0.65542,0.19898 -0.29284,0 -0.74546,0.14527 -1.00583,0.32283 -0.26037,0.17755 -1.55341,0.61272 -2.87341,0.967 -1.32,0.35432 -3.102,0.85383 -3.96,1.11005 -0.858,0.25625 -2.424,0.63118 -3.48,0.83319 -1.056,0.202 -2.946,0.64207 -4.2,0.97795 -1.254,0.33588 -3.34832,0.7673 -4.65406,0.95873 -1.30573,0.1914 -2.49373,0.44289 -2.64,0.55886 -0.14626,0.11597 -0.80594,0.28651 -1.46594,0.37898 -0.66,0.0925 -1.713,0.34745 -2.34,0.56662 l -1.14,0.39845 9.6e-4,1.20367 c 4.8e-4,0.66202 0.20056,1.90567 0.44455,2.76367 l 0.44361,1.56 h 3.21545 3.21546 l -0.0755,2.64 c -0.1,3.49721 -0.28206,3.76839 -2.70969,4.03471 -0.97617,0.10709 -2.70851,0.1483 -3.84964,0.0916 l -2.07477,-0.10312 0.0249,1.70841 c 0.0137,0.93965 -0.0614,2.08644 -0.16692,2.54844 l -0.19184,0.84 1.8817,-0.0228 c 2.05029,-0.0249 3.01847,-0.33775 4.76582,-1.53996 0.59918,-0.41225 1.46437,-0.81038 1.92265,-0.88476 0.75486,-0.12249 0.83357,-0.0815 0.8369,0.4362 0.007,1.1298 0.30418,1.2618 1.55566,0.69171 0.81356,-0.37064 1.37994,-0.47758 1.95633,-0.36946 0.52887,0.0992 1.03979,0.026 1.4678,-0.21036 0.78483,-0.43337 2.48993,-0.99497 3.72369,-1.22642 0.74661,-0.14007 0.89285,-0.10054 0.89285,0.24136 0,0.22486 -0.21316,0.67985 -0.47369,1.01105 -0.63828,0.81144 -0.89641,2.21842 -0.45795,2.49612 0.6606,0.41839 1.07272,0.18809 2.25164,-1.25827 2.20396,-2.70394 3.55668,-3.78086 4.76798,-3.79584 0.63276,-0.008 0.67437,0.0445 0.51852,0.6515 -0.0932,0.363 -0.22487,1.551 -0.29261,2.64 l -0.12315,1.98 h 0.73079 c 0.50911,0 1.16886,-0.34579 2.17501,-1.14 0.79433,-0.627 1.99882,-1.572 2.67666,-2.1 0.67783,-0.528 1.84316,-1.51586 2.58961,-2.19525 1.75974,-1.60167 4.33283,-2.92834 6.71492,-3.46217 0.59635,-0.13363 1.22056,-0.42739 1.38712,-0.65278 0.23353,-0.316 0.36875,-0.34483 0.59086,-0.12592 0.42959,0.42338 0.10522,0.97915 -0.78969,1.35307 -1.64258,0.68633 -4.44092,3.66816 -3.92582,4.18325 0.0742,0.0742 0.54101,-0.0402 1.03735,-0.25414 1.78578,-0.76987 4.14245,-0.73855 4.14245,0.055 0,0.11232 -0.44457,0.86995 -0.98792,1.68365 -0.54336,0.81367 -0.91689,1.55045 -0.83007,1.63728 0.0868,0.0868 0.78809,-0.18862 1.55837,-0.61207 0.77028,-0.42348 1.58615,-0.76995 1.81304,-0.76995 0.22688,0 0.71243,-0.17716 1.07898,-0.39369 1.31525,-0.77693 2.69636,0.30801 1.47821,1.16124 -0.29029,0.20333 -0.51068,0.76041 -0.62252,1.5736 l -0.17313,1.25885 h 0.78362 c 0.43099,0 0.95413,-0.1512 1.16252,-0.33597 z m -63.98201,-0.85396 3.31911,-0.0101 -0.15138,-1.62 c -0.27323,-2.92399 0.3466,-2.59781 -5.341888,-2.81122 -2.74171,-0.10286 -5.79493,-0.21441 -6.78493,-0.24787 -0.99,-0.0335 -3.636,0.0484 -5.88,0.18204 -4.7581,0.28327 -7.93821,0.25754 -11.28,-0.0912 -1.32,-0.13778 -2.97163,-0.17942 -3.67029,-0.0925 -1.17729,0.14637 -1.25635,0.19613 -1.08,0.67939 0.10466,0.2868 0.17237,1.24726 0.15048,2.13437 l -0.0398,1.61289 0.75981,0.12727 c 1.3373,0.22397 3.16635,0.24792 15.0398,0.19697 6.402,-0.0275 13.13359,-0.0545 14.959088,-0.06 z m -11.839088,-12.3067 c 11.06347,0.0687 20.849828,-0.21257 21.899988,-0.62947 0.61359,-0.24358 0.65999,-0.35947 0.65988,-1.64794 -7e-5,-0.82975 -0.20265,-1.91568 -0.50478,-2.70595 -0.27757,-0.726 -0.71308,-2.13 -0.96782,-3.12 -1.04677,-4.06821 -1.83339,-6.43207 -2.71541,-8.16 -0.3032,-0.594 -0.71558,-1.512 -0.91639,-2.04 -0.99846,-2.62529 -1.73299,-4.14237 -2.30003,-4.75041 -0.58124,-0.62328 -0.71837,-0.66005 -1.95033,-0.52313 -0.72881,0.081 -2.675118,0.56306 -4.325118,1.07126 -11.235,3.46032 -18.40426,4.47703 -26.63999,3.77796 l -2.52,-0.21391 -1.0198,1.15913 c -1.07295,1.21953 -2.14302,3.22913 -2.78971,5.2391 -0.89675,2.78717 -1.07692,3.42257 -1.22698,4.32715 -0.0869,0.52407 -0.24573,1.16885 -0.35288,1.43285 -0.24783,0.61061 -0.73063,4.28035 -0.73063,5.55351 v 0.96859 l 2.22,0.2435 c 1.29839,0.14242 4.661,0.18351 8.1,0.0989 3.234,-0.0795 10.47,-0.11604 16.08,-0.0812 z M 464.66302,430.4234 c 1.24507,-0.55366 1.43683,-0.89441 0.6,-1.06615 -0.297,-0.0609 -1.10187,-0.23456 -1.7886,-0.38578 -0.68674,-0.15122 -1.36174,-0.20503 -1.50001,-0.11957 -0.31862,0.1969 -0.32112,0.8724 -0.006,1.7004 0.28402,0.74705 0.77816,0.72343 2.69492,-0.1289 z m 89.80041,-214.14446 c 0.0603,-0.297 0.17398,-2.90065 0.25268,-5.78589 0.0787,-2.88524 0.24775,-5.74724 0.37567,-6.36 0.12792,-0.61276 0.27801,-5.81211 0.33353,-11.55411 0.0555,-5.742 0.18019,-14.44187 0.2771,-19.33306 0.0969,-4.89118 0.10313,-9.18418 0.0139,-9.53999 -0.14453,-0.57589 -0.27461,-0.64695 -1.18438,-0.64695 -0.56212,0 -1.27137,-0.17464 -1.57612,-0.3881 -0.47832,-0.33502 -1.06829,-0.36653 -4.3134,-0.23033 -2.06763,0.0868 -4.73132,0.26387 -5.91932,0.39353 -1.188,0.12965 -3.24,0.27624 -4.56,0.32575 -1.32,0.0495 -3.66943,0.21518 -5.22098,0.36814 -1.55153,0.15297 -2.92555,0.2135 -3.05338,0.1345 -0.12782,-0.079 -2.35099,-0.018 -4.9404,0.13555 -3.42905,0.20334 -4.84891,0.20754 -5.22662,0.0155 -0.66694,-0.33914 -22.81702,-0.20586 -26.07862,0.15692 -4.74461,0.52773 -5.91449,0.59124 -6.37711,0.34621 -1.0055,-0.53257 -23.24695,-0.18617 -24.25464,0.37776 -0.36785,0.20585 -0.30166,0.28928 0.49274,0.6212 0.5047,0.21088 0.98544,0.38392 1.06832,0.38453 0.26656,0.002 2.86514,1.10304 3.19339,1.35311 0.1745,0.13296 0.79478,0.37851 1.37834,0.54569 0.58359,0.16717 1.93359,0.71282 3,1.21255 1.06644,0.49972 2.28996,1.04296 2.71896,1.20718 0.429,0.16423 0.78,0.37999 0.78,0.47947 0,0.0995 0.32532,0.24595 0.72291,0.32547 0.3976,0.0795 1.2886,0.55543 1.98,1.05757 1.89108,1.37345 2.51726,1.73775 2.98864,1.73876 0.42216,9.6e-4 5.84782,2.6593 6.54845,3.20853 0.198,0.15522 1.116,0.64072 2.04,1.0789 0.924,0.43817 1.842,0.88654 2.04,0.99638 0.198,0.10983 1.36255,0.69076 2.58787,1.29095 1.22532,0.60019 3.00732,1.59555 3.96,2.21191 0.95268,0.61636 2.16413,1.31964 2.69213,1.56283 0.90869,0.41854 3.67582,1.96977 6.76519,3.79253 1.59192,0.93924 3.81929,2.59849 4.48776,3.34312 0.24912,0.2775 0.81228,0.57196 1.25146,0.65435 0.43918,0.0824 0.92357,0.3005 1.07642,0.48469 0.15288,0.18419 0.4112,0.3349 0.57404,0.3349 0.16286,0 0.78398,0.37251 1.38026,0.8278 0.59628,0.45529 1.39481,0.90354 1.77451,0.9961 0.37971,0.0926 1.04513,0.47606 1.47871,0.8522 0.43359,0.37614 0.90941,0.6839 1.05735,0.6839 0.14796,0 0.60319,0.25446 1.01165,0.56546 0.40845,0.31101 0.98565,0.64229 1.28265,0.73618 0.297,0.0939 0.54,0.27142 0.54,0.39453 0,0.1231 0.12075,0.22383 0.26832,0.22383 0.14758,0 0.62928,0.31693 1.07045,0.70429 0.44119,0.38736 1.31945,1.00298 1.95171,1.36804 0.63223,0.36506 1.2359,0.80413 1.34145,0.9757 0.10555,0.17158 0.29098,0.31196 0.41206,0.31196 0.31118,0 4.10796,2.40114 4.62537,2.92516 0.23614,0.23917 0.57629,0.43484 0.75588,0.43484 0.1796,0 0.88824,0.378 1.57476,0.84 0.68652,0.462 1.44017,0.84 1.67472,0.84 0.23458,0 0.56336,0.1649 0.73061,0.36644 0.35803,0.4314 2.33566,1.79356 2.60395,1.79356 0.10186,0 0.60946,0.321 1.12798,0.71333 0.5185,0.39233 1.03094,0.71633 1.13875,0.72 0.10781,0.004 0.55001,0.27667 0.98266,0.60667 0.43265,0.33 0.91284,0.6 1.06709,0.6 0.15422,0 0.68404,0.36849 1.17734,0.81887 1.67789,1.53189 2.57522,2.22468 3.7769,2.91597 0.66,0.37968 1.632,0.98725 2.16,1.35016 1.20017,0.8249 1.99032,0.87474 2.14042,0.135 z m -92.26042,-51.51202 c 0,-0.11661 -0.27,-0.26363 -0.6,-0.32672 -0.33,-0.0631 -0.6,-0.0292 -0.6,0.0753 0,0.10452 0.243,0.23683 0.54,0.29404 0.297,0.0572 0.567,0.11871 0.6,0.13669 0.033,0.018 0.06,-0.0627 0.06,-0.17934 z m -24.71999,-3.98237 c 10.00505,-0.54455 14.71076,-0.84013 15.36,-0.96481 0.33,-0.0634 3.246,-0.17069 6.47999,-0.23847 3.234,-0.0678 6.18169,-0.18664 6.5504,-0.26413 0.53563,-0.11258 0.80988,-0.43812 1.3644,-1.61955 0.38169,-0.81325 0.76505,-1.80265 0.8519,-2.19865 0.17076,-0.77846 1.2888,-4.32805 2.15446,-6.84 1.10376,-3.20289 1.79885,-5.57066 1.79885,-6.12771 0,-0.31598 0.22723,-1.14551 0.50496,-1.8434 1.16128,-2.91809 2.85504,-8.60058 2.85504,-9.57861 0,-0.83986 -0.767,-2.61341 -1.35888,-3.1422 -0.25359,-0.22656 -1.17063,-0.679 -2.03784,-1.00542 -3.04949,-1.14783 -4.41257,-2.15226 -5.20877,-3.83828 -0.37404,-0.79206 -0.65652,-1.04299 -1.44591,-1.28437 -0.53956,-0.165 -1.36516,-0.3 -1.83465,-0.3 -0.46947,0 -1.52417,-0.20579 -2.34377,-0.45731 -0.8196,-0.25151 -2.19219,-0.59389 -3.05019,-0.76081 -1.2632,-0.24576 -1.73123,-0.47301 -2.45999,-1.19446 -0.85778,-0.84917 -0.9,-0.96473 -0.9,-2.46357 0,-2.0321 0.24274,-2.62013 1.36251,-3.30081 1.22772,-0.74629 1.26957,-0.83089 1.27382,-2.57422 0.003,-1.42568 0.0443,-1.53429 0.72215,-1.92 0.46433,-0.26422 0.71902,-0.60077 0.72,-0.95145 0.002,-0.76902 0.93991,-2.66893 1.45282,-2.94343 0.23719,-0.12695 0.58128,-0.38081 0.76461,-0.56415 0.24932,-0.24933 1.84174,-0.40682 6.3187,-0.6249 3.29196,-0.16036 6.3871,-0.39235 6.87809,-0.51552 1.01006,-0.2534 1.06226,-0.37815 1.74475,-4.16938 0.21384,-1.188 0.49092,-2.55053 0.61567,-3.027845 0.12478,-0.477314 0.22688,-1.427471 0.22688,-2.111459 0,-1.036541 -0.10575,-1.341612 -0.63504,-1.832156 -0.34928,-0.323697 -0.73796,-0.58854 -0.86374,-0.58854 -0.21638,0 -1.55131,-0.539392 -2.34698,-0.948331 -0.20115,-0.103389 -1.28115,-0.380249 -2.4,-0.615247 -1.11884,-0.234996 -2.13684,-0.519326 -2.26224,-0.631843 -0.1254,-0.112519 -0.58587,-0.204578 -1.02327,-0.204578 -0.43737,0 -0.98277,-0.103042 -1.212,-0.22898 -0.94291,-0.518092 -7.96682,-1.388752 -12.65673,-1.568889 -1.452,-0.05577 -4.314,-0.274572 -6.36,-0.486228 -2.046,-0.211654 -5.232,-0.481663 -7.08,-0.600017 -1.848,-0.118356 -4.494,-0.33199 -5.88,-0.474744 -4.51598,-0.46513 -7.50621,-0.701772 -10.56,-0.835697 -1.65,-0.07236 -4.836,-0.294662 -7.08,-0.493999 -3.60208,-0.319977 -8.97722,-0.337802 -15.24,-0.05054 -0.462,0.02119 -1.245,-0.04987 -1.74,-0.157899 -0.84149,-0.183653 -0.89995,-0.159576 -0.89918,0.370284 0,0.31169 0.33348,1.37671 0.74004,2.36671 0.77088,1.877157 2.19643,6.077128 2.48453,7.319999 0.0918,0.396 0.51914,1.476 0.94965,2.4 1.3376,2.870873 2.04226,4.727849 2.54475,6.706089 0.26628,1.04835 0.7692,2.61435 1.11758,3.48 0.34839,0.86565 0.71811,1.89791 0.82159,2.29391 0.34256,1.3106 0.96087,2.8337 1.40516,3.46125 0.24093,0.34031 0.73423,1.53675 1.09622,2.65875 0.36197,1.122 0.97006,2.688 1.35132,3.48 0.69972,1.45366 1.64834,4.45134 1.64834,5.2089 0,0.22573 1.08,2.61782 2.4,5.31576 1.32,2.69793 2.40344,5.05159 2.40764,5.23034 0.004,0.17875 0.16605,0.53446 0.35968,0.79045 0.19364,0.256 0.63764,1.39 0.98667,2.52 0.34903,1.13001 0.82579,2.43255 1.05945,2.89455 0.23367,0.462 0.69341,1.434 1.02164,2.16 1.34577,2.97659 1.84934,3.99525 2.3136,4.68 0.26848,0.396 0.48888,0.85293 0.48974,1.01539 0.003,0.63756 1.93925,4.38613 2.62999,5.09276 0.40239,0.41162 0.73159,0.89596 0.73159,1.0763 0,0.18034 0.432,1.25428 0.96,2.38653 0.528,1.13225 0.96,2.10178 0.96,2.15452 0,0.0527 0.16344,0.48707 0.36322,0.96519 0.42946,1.02782 -0.40474,0.97437 8.03678,0.51492 z m 68.76,-1.943 c 6.072,-0.073 11.85,-0.17899 12.84,-0.23559 0.99,-0.0566 5.742,-0.28062 10.56,-0.49783 4.818,-0.21721 8.805,-0.43414 8.86001,-0.48206 0.26378,-0.22984 -0.37721,-0.43848 -1.7994,-0.58569 -1.98332,-0.20528 -5.0004,-1.71222 -6.70061,-3.34675 -0.66,-0.6345 -1.60752,-1.32042 -2.10559,-1.52426 -0.76877,-0.31461 -1.01516,-0.61478 -1.63064,-1.98661 -0.39878,-0.8888 -1.0764,-1.95722 -1.50583,-2.37427 -0.46942,-0.45589 -0.88574,-1.17923 -1.04402,-1.81391 -0.14477,-0.5806 -0.37373,-1.37964 -0.50878,-1.77564 -0.66149,-1.93959 -1.0074,-3.15977 -1.00632,-3.54956 0,-0.23626 -0.24182,-0.88426 -0.53882,-1.44 -0.50285,-0.94092 -0.5382,-1.29113 -0.5137,-5.09044 0.0381,-5.91457 0.4974,-11.07968 1.07362,-12.07371 0.26666,-0.46003 0.46008,-1.24524 0.46008,-1.86772 0,-0.5907 0.14659,-1.42485 0.32577,-1.85368 0.17919,-0.42882 0.40515,-1.415 0.50218,-2.1915 0.097,-0.7765 0.36768,-1.85317 0.60149,-2.3926 0.5326,-1.22879 1.09673,-2.86639 1.78471,-5.18079 0.29429,-0.99 1.0415,-2.75154 1.66046,-3.91453 0.61896,-1.16299 1.12539,-2.26088 1.12539,-2.43976 0,-0.52112 2.5733,-5.467155 3.18708,-6.12571 0.30753,-0.33 0.7224,-0.924 0.92189,-1.32 0.64706,-1.284422 1.03519,-1.899369 1.95103,-3.091351 0.495,-0.644241 0.9,-1.274587 0.9,-1.400765 0,-0.289821 1.40169,-2.311017 2.04437,-2.947883 0.2664,-0.264 1.08916,-1.236 1.82834,-2.16 0.7392,-0.924 1.70923,-2.017395 2.15563,-2.429765 0.44643,-0.41237 1.35166,-1.36253 2.01166,-2.111467 0.66,-0.748935 1.578,-1.769875 2.04,-2.268756 0.462,-0.498881 1.272,-1.484186 1.8,-2.189566 1.56487,-2.090579 2.79149,-3.359205 3.39427,-3.510496 0.31116,-0.07809 0.56573,-0.305777 0.56573,-0.505968 0,-0.282679 -0.17424,-0.3291 -0.78,-0.207821 -1.66438,0.333218 -9.59172,0.860858 -12.95554,0.86231 -1.94455,9.6e-4 -4.28827,0.130606 -5.20826,0.288368 -1.37211,0.235288 -1.78315,0.227731 -2.28725,-0.04205 -0.53208,-0.28476 -0.65441,-0.278762 -0.91174,0.04471 -0.2536,0.318778 -1.54735,0.401484 -8.81721,0.563664 -4.686,0.10454 -9.03159,0.197578 -9.65686,0.206753 l -1.13686,0.01668 -0.60314,1.935264 c -0.33173,1.064395 -0.60314,2.115768 -0.60314,2.336386 0,0.220617 -0.26314,0.970514 -0.58474,1.666439 -0.3216,0.695924 -0.75864,1.859316 -0.97118,2.585316 -0.21255,0.726 -0.69262,2.13 -1.06685,3.12 -0.37421,0.99 -0.81475,2.286 -0.97903,2.88 -0.36348,1.314435 -2.11292,6.653801 -2.39837,7.32 -0.11311,0.264 -0.42696,1.0986 -0.69739,1.854669 -0.27044,0.756068 -0.5994,1.566068 -0.73102,1.799993 -0.49289,0.876026 -0.97142,2.304686 -0.97142,2.900206 0,0.59301 -1.33728,5.14099 -2.09506,7.12512 -0.20165,0.528 -0.45223,1.284 -0.55682,1.68 -0.10462,0.396 -0.47544,1.476 -0.82409,2.4 -0.34867,0.924 -0.74098,2.112 -0.8718,2.64 -0.32527,1.31268 -0.76279,2.5561 -1.64671,4.68001 -0.41201,0.99 -0.95588,2.556 -1.20855,3.48 -0.95421,3.48925 -1.84769,5.73547 -2.42971,6.10842 -0.83969,0.53805 -0.96358,0.82755 -0.43747,1.02217 0.25862,0.0957 0.47021,0.38895 0.47021,0.65172 0,0.26279 -0.52632,2.12927 -1.16962,4.14774 -1.98312,6.22257 -2.64343,8.43208 -2.81813,9.42995 -0.0924,0.528 -0.35489,1.29273 -0.58325,1.69939 -0.22833,0.40666 -0.70466,1.70266 -1.05849,2.88 -0.35383,1.17734 -0.95295,3.00461 -1.3314,4.06061 -0.37846,1.056 -0.75975,2.42234 -0.8473,3.03631 -0.14637,1.02635 -0.11378,1.13097 0.4045,1.29837 0.60619,0.1958 10.80691,0.57156 11.60369,0.42744 0.264,-0.0478 5.448,-0.14653 11.52,-0.21951 z m 47.87268,-1.39776 c 1.25978,-0.28583 1.32055,-0.33573 1.50801,-1.23794 0.10743,-0.51705 0.16472,-1.96763 0.12732,-3.2235 -0.0644,-2.16137 -0.0969,-2.28751 -0.60801,-2.3601 -0.33175,-0.0471 -0.54,0.0486 -0.54,0.24809 0,1.0171 -3.14777,4.78807 -4.92,5.89408 -1.21925,0.7609 -1.15764,0.69473 -0.95388,1.02443 0.20388,0.32988 3.28053,0.13279 5.38656,-0.34506 z m -28.55268,-43.10485 c 0,-0.132 -0.108,-0.24 -0.24,-0.24 -0.132,0 -0.24,0.108 -0.24,0.24 0,0.132 0.108,0.24 0.24,0.24 0.132,0 0.24,-0.108 0.24,-0.24 z m -8.04,-43.484622 c 0.66,-0.128758 4.278,-0.350938 8.04,-0.493728 6.57007,-0.249374 7.4664,-0.262358 10.68,-0.15469 1.482,0.04965 7.06555,-0.385454 7.92,-0.617179 0.264,-0.07159 1.938,-0.229461 3.72,-0.35081 1.782,-0.121351 3.78,-0.351931 4.44,-0.5124 1.39185,-0.338407 3.71613,-1.170778 4.11333,-1.473067 0.37172,-0.282888 0.85784,-2.294165 0.68564,-2.836728 -0.41403,-1.30447 -7.64628,-2.333333 -13.4311,-1.910714 -1.72032,0.125683 -5.39587,0.333182 -8.16787,0.461107 -2.772,0.127927 -5.634,0.341357 -6.36,0.474288 -0.726,0.132933 -4.182,0.305582 -7.68,0.383666 l -6.36,0.141972 -0.64527,0.766454 c -0.35489,0.421548 -0.87938,1.306452 -1.16553,1.966452 -0.28613,0.66 -0.72476,1.66189 -0.97474,2.22642 -0.47278,1.067775 -0.58361,2.002829 -0.27446,2.315835 0.20556,0.20813 3.66746,-0.03717 5.46,-0.386878 z m 1.08175,612.678712 c -1.09039,-0.19181 -1.57997,-0.38926 -1.63059,-0.65765 -0.0619,-0.3283 0.38744,-0.41107 3.11825,-0.57458 1.75483,-0.10508 4.10859,-0.25647 5.23059,-0.33646 l 2.04,-0.14542 0.0713,-1.22556 0.0714,-1.22556 -1.22162,-0.52552 c -1.47024,-0.6325 -2.1589,-1.61784 -2.1602,-3.09089 0,-1.21887 -0.21876,-1.34777 -1.82217,-1.07895 l -1.17427,0.19685 -0.1614,1.12843 c -0.11643,0.8138 -0.35124,1.29538 -0.84224,1.72724 -0.61312,0.53925 -0.8896,0.59954 -2.7808,0.60638 -1.63863,0.006 -2.1,-0.0659 -2.1,-0.32674 0,-0.43934 0.49293,-0.61089 2.26015,-0.7865 0.80292,-0.0798 1.59485,-0.25147 1.75985,-0.3815 0.32532,-0.2564 0.40171,-1.57265 0.11632,-2.00453 -0.1907,-0.28858 -1.19476,-0.53439 -2.99632,-0.73349 -1.17797,-0.13018 -1.44773,-0.4855 -0.78574,-1.0349 0.23177,-0.19234 0.75043,-0.2437 1.5,-0.14852 2.60114,0.33029 2.31528,0.5532 2.58574,-2.01624 0.132,-1.254 0.32985,-2.419 0.43968,-2.58892 0.14522,-0.22469 0.79341,-0.28748 2.37672,-0.23028 l 2.17704,0.0786 0.44328,0.82654 c 0.32203,0.60046 0.44328,1.33634 0.44328,2.69028 0,1.6164 0.0558,1.86326 0.42,1.86007 1.03704,-0.009 1.12049,-0.28994 0.86683,-2.91713 -0.13166,-1.36356 -0.19634,-2.5332 -0.14374,-2.5992 0.0526,-0.066 1.25808,-0.15609 2.67879,-0.20023 l 2.58312,-0.0802 0.25797,0.68025 c 0.14189,0.37414 0.32108,1.29571 0.39816,2.04795 0.11724,1.14408 0.0714,1.40776 -0.28048,1.6127 -0.38331,0.22322 -0.3848,0.24564 -0.0168,0.25229 0.22209,0.004 0.47642,0.23599 0.56512,0.51549 0.25551,0.80501 -0.54379,1.38934 -2.28374,1.66954 -0.84156,0.13553 -1.61902,0.30137 -1.72766,0.3685 -0.10865,0.0671 -0.19755,0.48216 -0.19755,0.92224 0,0.90075 0.28903,1.09152 1.65377,1.09152 1.07818,0 1.7905,0.46522 1.67004,1.09068 -0.066,0.34289 -0.3895,0.50945 -1.27886,0.65856 -0.65477,0.10976 -1.31324,0.30147 -1.46328,0.42598 -0.15003,0.12451 -0.34532,1.11703 -0.43395,2.2056 -0.18929,2.32462 -0.40555,2.58086 -2.17358,2.57551 -1.48639,-0.005 -1.9212,-0.24093 -1.70364,-0.92637 0.22353,-0.70431 -0.0382,-0.63812 -0.8305,0.21004 -0.627,0.67121 -0.78394,0.71825 -2.31629,0.69411 -0.90403,-0.0142 -2.34492,-0.14926 -3.20196,-0.3 z m 8.76214,-7.53411 c -0.21742,-1.45257 -0.25212,-1.5 -1.09805,-1.5 -0.62079,0 -0.70584,0.0849 -0.70584,0.70438 0,1.31758 0.38997,1.93562 1.22131,1.93562 h 0.75319 z m 3.79226,-3.9978 c 0.10829,-0.7798 0.13853,-1.6438 0.0672,-1.92 -0.15725,-0.60876 -1.15613,-1.1022 -2.23121,-1.1022 -0.92726,0 -0.96225,0.19743 -0.51504,2.90542 l 0.27708,1.67786 1.10254,-0.0716 1.10253,-0.0716 z m -7.23905,0.91486 c 0.1116,-0.0689 0.2029,-0.91075 0.2029,-1.87066 0,-1.62782 -0.0415,-1.76745 -0.6156,-2.07475 -0.43205,-0.23121 -0.66464,-0.25159 -0.78,-0.0683 -0.0904,0.14364 -0.37299,0.3007 -0.62794,0.34904 -0.35402,0.0671 -0.56086,0.48477 -0.87547,1.76776 -0.22656,0.92393 -0.39598,1.69095 -0.37647,1.70448 0.79136,0.54891 2.339,0.64584 3.07258,0.19246 z m -13.1837,1.92934 c -0.62592,-0.43844 -0.70296,-1.2564 -0.1387,-1.47293 0.48185,-0.1849 1.0453,0.51175 1.0453,1.2924 0,0.65153 -0.18233,0.68781 -0.9066,0.18053 z m 24.20786,0.0392 c -0.39677,-0.47811 0.064,-1.34564 0.71472,-1.34564 0.57936,0 0.87204,0.63972 0.5365,1.17262 -0.33096,0.52562 -0.89395,0.60348 -1.25122,0.17302 z m -60.44974,-248.6314 c -0.53779,-0.17614 -0.83448,-0.45159 -0.93309,-0.86623 -0.0795,-0.3344 -0.24341,-0.73392 -0.36415,-0.88781 -0.39972,-0.50945 0.61468,-0.57761 1.89364,-0.1272 2.02925,0.71462 2.58624,1.51301 1.37645,1.97297 -0.70889,0.26949 -0.89673,0.26078 -1.97285,-0.0917 z"
       id="path193" />
  </g>
</svg>
